<svg xmlns="http://www.w3.org/2000/svg" xmlns:xlink="http://www.w3.org/1999/xlink" width="424" zoomAndPan="magnify" viewBox="0 0 318 281.999989" height="376" preserveAspectRatio="xMidYMid meet" version="1.0"><defs><clipPath id="10e2482440"><path d="M 74.351562 41.351562 L 281.351562 41.351562 L 281.351562 248.351562 L 74.351562 248.351562 Z M 74.351562 41.351562 " clip-rule="nonzero"/></clipPath><clipPath id="74b4735046"><path d="M 34 98 L 162 98 L 162 233 L 34 233 Z M 34 98 " clip-rule="nonzero"/></clipPath><clipPath id="61cdd91d23"><path d="M 194.597656 179.855469 L 67.921875 260.1875 L 0.441406 153.78125 L 127.117188 73.445312 Z M 194.597656 179.855469 " clip-rule="nonzero"/></clipPath><clipPath id="d0bb7b7021"><path d="M 194.597656 179.855469 L 67.921875 260.1875 L 0.441406 153.78125 L 127.117188 73.445312 Z M 194.597656 179.855469 " clip-rule="nonzero"/></clipPath><clipPath id="411ceeb9b3"><path d="M 31 102 L 160 102 L 160 231 L 31 231 Z M 31 102 " clip-rule="nonzero"/></clipPath><clipPath id="75fe0ab9b2"><path d="M 194.597656 179.855469 L 67.921875 260.1875 L 0.441406 153.78125 L 127.117188 73.445312 Z M 194.597656 179.855469 " clip-rule="nonzero"/></clipPath><clipPath id="a0ba6e66da"><path d="M 194.597656 179.855469 L 67.921875 260.1875 L 0.441406 153.78125 L 127.117188 73.445312 Z M 194.597656 179.855469 " clip-rule="nonzero"/></clipPath><clipPath id="4e35379d61"><path d="M 108 140 L 240 140 L 240 265 L 108 265 Z M 108 140 " clip-rule="nonzero"/></clipPath><clipPath id="b88b428543"><path d="M 268.421875 235.84375 L 125.550781 281.546875 L 87.160156 161.539062 L 230.03125 115.835938 Z M 268.421875 235.84375 " clip-rule="nonzero"/></clipPath><clipPath id="6fd876fc58"><path d="M 268.421875 235.84375 L 125.550781 281.546875 L 87.160156 161.539062 L 230.03125 115.835938 Z M 268.421875 235.84375 " clip-rule="nonzero"/></clipPath><clipPath id="e2d8a32461"><path d="M 110 134 L 243 134 L 243 256 L 110 256 Z M 110 134 " clip-rule="nonzero"/></clipPath><clipPath id="cd0f85aa5a"><path d="M 268.421875 235.84375 L 125.550781 281.546875 L 87.160156 161.539062 L 230.03125 115.835938 Z M 268.421875 235.84375 " clip-rule="nonzero"/></clipPath><clipPath id="f8c2e69d5b"><path d="M 268.421875 235.84375 L 125.550781 281.546875 L 87.160156 161.539062 L 230.03125 115.835938 Z M 268.421875 235.84375 " clip-rule="nonzero"/></clipPath><clipPath id="2b0baf2f98"><path d="M 165 16 L 299 16 L 299 139 L 165 139 Z M 165 16 " clip-rule="nonzero"/></clipPath><clipPath id="863e4c8c0d"><path d="M 139.269531 40.984375 L 283.738281 0.625 L 317.640625 121.980469 L 173.171875 162.339844 Z M 139.269531 40.984375 " clip-rule="nonzero"/></clipPath><clipPath id="a2a7d68fc6"><path d="M 139.269531 40.984375 L 283.738281 0.625 L 317.640625 121.980469 L 173.171875 162.339844 Z M 139.269531 40.984375 " clip-rule="nonzero"/></clipPath><clipPath id="38b3e74887"><path d="M 163 26 L 296 26 L 296 146 L 163 146 Z M 163 26 " clip-rule="nonzero"/></clipPath><clipPath id="7c2d066389"><path d="M 139.269531 40.984375 L 283.738281 0.625 L 317.640625 121.980469 L 173.171875 162.339844 Z M 139.269531 40.984375 " clip-rule="nonzero"/></clipPath><clipPath id="297e3614c4"><path d="M 139.269531 40.984375 L 283.738281 0.625 L 317.640625 121.980469 L 173.171875 162.339844 Z M 139.269531 40.984375 " clip-rule="nonzero"/></clipPath><clipPath id="cf016de6be"><path d="M 81.078125 118 L 249 118 L 249 213 L 81.078125 213 Z M 81.078125 118 " clip-rule="nonzero"/></clipPath><clipPath id="1fc08523bd"><path d="M 81.078125 11 L 249.078125 11 L 249.078125 214 L 81.078125 214 Z M 81.078125 11 " clip-rule="nonzero"/></clipPath></defs><g clip-path="url(#10e2482440)"><path fill="#5e548e" d="M 256.554688 74.183594 C 252.507812 67.171875 245.164062 63.25 237.613281 63.246094 L 237.617188 63.242188 C 230.066406 63.238281 222.722656 59.316406 218.675781 52.304688 C 212.636719 41.847656 199.261719 38.261719 188.800781 44.300781 L 188.800781 44.304688 L 188.800781 44.296875 C 182.304688 48.039062 174.058594 48.335938 167.078125 44.378906 C 163.828125 42.464844 160.039062 41.363281 155.992188 41.363281 C 147.898438 41.363281 140.832031 45.761719 137.050781 52.296875 C 133.269531 58.832031 126.203125 63.230469 118.109375 63.230469 C 106.03125 63.230469 96.238281 73.019531 96.238281 85.097656 L 96.238281 85.101562 L 96.234375 85.097656 C 96.226562 92.59375 92.363281 99.878906 85.457031 103.945312 C 82.167969 105.800781 79.316406 108.535156 77.292969 112.042969 C 73.246094 119.054688 73.519531 127.371094 77.289062 133.914062 C 81.058594 140.457031 81.332031 148.773438 77.285156 155.785156 C 71.246094 166.242188 74.828125 179.617188 85.289062 185.65625 L 85.292969 185.660156 L 85.289062 185.664062 C 91.824219 189.441406 96.21875 196.507812 96.21875 204.605469 C 96.21875 216.683594 106.011719 226.472656 118.089844 226.472656 C 126.183594 226.472656 133.246094 230.871094 137.03125 237.40625 C 140.8125 243.941406 147.878906 248.339844 155.972656 248.339844 C 160.019531 248.339844 163.808594 247.238281 167.058594 245.324219 C 174.035156 241.367188 182.285156 241.664062 188.78125 245.410156 L 188.78125 245.402344 C 199.242188 251.441406 212.617188 247.855469 218.65625 237.398438 C 222.703125 230.390625 230.042969 226.46875 237.59375 226.460938 L 237.59375 226.457031 C 245.144531 226.453125 252.488281 222.53125 256.53125 215.523438 C 258.523438 212.070312 259.46875 208.304688 259.464844 204.585938 L 259.46875 204.589844 C 259.476562 197.304688 263.125 190.214844 269.675781 186.089844 C 273.207031 184.234375 276.269531 181.390625 278.410156 177.679688 C 282.460938 170.667969 282.183594 162.351562 278.414062 155.808594 C 274.644531 149.265625 274.371094 140.949219 278.417969 133.9375 C 284.457031 123.476562 280.875 110.105469 270.414062 104.0625 L 270.410156 104.0625 L 270.414062 104.0625 C 263.929688 100.308594 259.554688 93.324219 259.484375 85.308594 C 259.523438 81.53125 258.578125 77.691406 256.554688 74.183594 " fill-opacity="1" fill-rule="nonzero"/></g><g clip-path="url(#74b4735046)"><g clip-path="url(#61cdd91d23)"><g clip-path="url(#d0bb7b7021)"><path fill="#5e548e" d="M 161.578125 190.203125 C 162.015625 179.601562 153.089844 171.171875 149.742188 161.1875 C 145.996094 150.265625 149.167969 138.328125 149.441406 126.84375 C 149.714844 115.355469 145.011719 101.667969 133.804688 99.046875 C 126.070312 97.203125 118.425781 101.457031 112.207031 106.394531 C 105.988281 111.328125 100.398438 117.257812 93.066406 120.121094 C 83.992188 123.691406 73.839844 121.792969 64.144531 122.1875 C 54.449219 122.578125 43.3125 126.664062 40.625 135.910156 C 38.441406 143.449219 42.722656 151.449219 43.140625 159.324219 C 43.445312 166.078125 41.007812 172.585938 38.625 178.859375 C 36.238281 185.136719 33.890625 191.785156 34.339844 198.449219 C 35.015625 205.164062 39.414062 212.101562 46.148438 212.992188 C 53.664062 214.179688 60.796875 207.867188 68.417969 208.59375 C 78.675781 210.027344 82.984375 222.777344 91.644531 228.597656 C 99.898438 234.082031 111.4375 232.519531 119.808594 227.210938 C 125.339844 223.703125 129.691406 218.957031 133.71875 214.019531 C 138.421875 208.261719 138.421875 208.261719 144.835938 206.773438 C 153.082031 204.71875 161.347656 199.875 161.578125 190.203125 Z M 161.578125 190.203125 " fill-opacity="1" fill-rule="nonzero"/></g></g></g><g clip-path="url(#411ceeb9b3)"><g clip-path="url(#75fe0ab9b2)"><g clip-path="url(#a0ba6e66da)"><path fill="#ac76b7" d="M 83.980469 225.914062 C 86.75 224.953125 89.515625 226.175781 92.269531 225.816406 C 95.402344 225.421875 98.507812 224.046875 101.023438 222.054688 C 106.90625 217.53125 110.605469 210.816406 115.71875 205.390625 C 125.941406 194.542969 139.605469 187.859375 149.417969 176.675781 C 157.746094 167.226562 162.285156 154.621094 157.644531 142.285156 C 155.546875 136.46875 151.179688 132.09375 144.910156 131.304688 C 142.082031 130.914062 139.09375 131.222656 136.210938 131.066406 C 132.488281 130.847656 129.066406 129.839844 125.800781 128.140625 C 119.269531 124.742188 114.183594 119.230469 109.046875 113.957031 C 104.824219 109.488281 99.558594 103.699219 93.109375 102.625 C 87.5 101.621094 81.96875 105.128906 78.789062 109.523438 C 74.796875 114.835938 73.519531 121.601562 71.738281 127.890625 C 70.726562 131.3125 69.339844 134.769531 67.308594 137.84375 C 65.28125 140.917969 62.339844 143.179688 59.039062 144.875 C 53.097656 148.046875 46.164062 149.664062 40.886719 154.203125 C 35.945312 158.328125 33.933594 164.566406 32.8125 170.636719 C 31.585938 177.171875 31.015625 183.488281 34.414062 189.46875 C 36.246094 192.675781 38.644531 195.519531 40.390625 198.582031 C 42.222656 201.785156 42.792969 205.195312 42.9375 208.875 C 42.949219 214.222656 42.574219 220.21875 47.097656 223.898438 C 51.621094 227.582031 57.632812 227.339844 63.222656 227.371094 C 66.386719 227.347656 69.4375 228.390625 72.292969 229.753906 C 74.039062 230.628906 75.789062 231.507812 77.8125 230.621094 C 80.210938 229.695312 81.53125 227.070312 83.980469 225.914062 C 84.351562 225.878906 84.136719 225.222656 83.851562 225.402344 C 81.6875 226.378906 80.382812 228.394531 78.304688 229.515625 C 75.609375 231.222656 73.054688 229.074219 70.609375 228.042969 C 65.722656 225.980469 60.761719 226.945312 55.617188 226.039062 C 52.550781 225.601562 49.183594 224.363281 47 222.175781 C 44.636719 219.703125 44.15625 216.4375 44.136719 213.273438 C 44.015625 210.570312 44.265625 207.832031 44.054688 204.988281 C 43.84375 202.144531 42.742188 199.46875 41.359375 196.972656 C 39.707031 194.050781 37.574219 191.632812 35.921875 188.710938 C 34.089844 185.507812 33.285156 182.046875 33.371094 178.417969 C 33.496094 175.164062 33.992188 171.871094 34.722656 168.632812 C 35.363281 165.25 36.234375 161.917969 38.121094 158.933594 C 44.910156 147.683594 61.089844 148.734375 68.609375 138.011719 C 75.601562 128.019531 73.941406 111.605469 85.652344 104.976562 C 92.585938 101.171875 98.589844 105.304688 103.648438 109.835938 C 108.710938 114.367188 113.101562 119.71875 118.445312 124.070312 C 122.878906 127.613281 128.019531 130.703125 133.828125 131.386719 C 139.863281 132.125 146.5625 130.457031 151.816406 134.664062 C 157.109375 139.246094 158.96875 147.199219 158.722656 153.707031 C 158.472656 160.214844 156 166.351562 152.238281 171.710938 C 144.382812 182.847656 132.570312 189.941406 122.261719 198.460938 C 116.699219 203.179688 112.386719 208.296875 108.058594 214.019531 C 103.785156 219.507812 97.808594 226.078125 90.097656 225.210938 C 87.960938 224.980469 86.105469 224.566406 83.992188 225.3125 C 83.566406 225.582031 83.695312 226.097656 83.980469 225.914062 Z M 83.980469 225.914062 " fill-opacity="1" fill-rule="nonzero"/></g></g></g><g clip-path="url(#4e35379d61)"><g clip-path="url(#b88b428543)"><g clip-path="url(#6fd876fc58)"><path fill="#5e548e" d="M 233.859375 237.507812 C 236.960938 227.367188 230.457031 216.953125 229.742188 206.445312 C 228.878906 194.929688 234.964844 184.183594 238.132812 173.140625 C 241.300781 162.097656 240.210938 147.664062 230.027344 142.296875 C 223.011719 138.558594 214.539062 140.738281 207.277344 143.941406 C 200.011719 147.148438 193.105469 151.46875 185.289062 152.386719 C 175.605469 153.546875 166.261719 149.144531 156.78125 147.074219 C 147.300781 145.003906 135.496094 146.140625 130.558594 154.40625 C 126.542969 161.148438 128.660156 169.972656 127.074219 177.695312 C 125.660156 184.308594 121.65625 189.988281 117.765625 195.457031 C 113.871094 200.925781 109.917969 206.765625 108.667969 213.324219 C 107.625 219.992188 110.128906 227.816406 116.414062 230.378906 C 123.386719 233.429688 131.886719 229.125 139.074219 231.753906 C 148.636719 235.734375 149.582031 249.160156 156.492188 256.980469 C 163.089844 264.371094 174.648438 265.777344 184.089844 262.757812 C 190.328125 260.761719 195.738281 257.273438 200.882812 253.511719 C 206.886719 249.128906 206.886719 249.128906 213.472656 249.3125 C 221.96875 249.410156 231.191406 246.808594 233.859375 237.507812 Z M 233.859375 237.507812 " fill-opacity="1" fill-rule="nonzero"/></g></g></g><g clip-path="url(#e2d8a32461)"><g clip-path="url(#cd0f85aa5a)"><g clip-path="url(#f8c2e69d5b)"><path fill="#ac76b7" d="M 149.753906 252.449219 C 152.675781 252.21875 155.042969 254.101562 157.800781 254.449219 C 160.925781 254.855469 164.28125 254.3125 167.21875 253.019531 C 174.054688 250.128906 179.328125 244.570312 185.648438 240.613281 C 198.28125 232.699219 213.191406 229.691406 225.511719 221.347656 C 235.960938 214.3125 243.535156 203.265625 242.164062 190.152344 C 241.605469 183.996094 238.488281 178.660156 232.621094 176.3125 C 229.980469 175.21875 227.011719 174.761719 224.261719 173.882812 C 220.71875 172.726562 217.660156 170.890625 214.929688 168.421875 C 209.46875 163.480469 205.941406 156.863281 202.308594 150.460938 C 199.347656 145.070312 195.71875 138.136719 189.753906 135.472656 C 184.578125 133.078125 178.339844 135.074219 174.152344 138.527344 C 168.949219 142.652344 166 148.875 162.6875 154.511719 C 160.84375 157.566406 158.628906 160.5625 155.886719 163.023438 C 153.148438 165.484375 149.730469 166.929688 146.109375 167.734375 C 139.554688 169.304688 132.441406 169.117188 126.1875 172.171875 C 120.363281 174.914062 116.839844 180.441406 114.21875 186.03125 C 111.382812 192.042969 109.234375 198.007812 111.007812 204.65625 C 111.972656 208.21875 113.574219 211.578125 114.488281 214.984375 C 115.449219 218.546875 115.140625 221.988281 114.351562 225.585938 C 113.011719 230.765625 111.132812 236.46875 114.578125 241.175781 C 118.023438 245.878906 123.902344 247.167969 129.300781 248.609375 C 132.371094 249.386719 135.058594 251.167969 137.472656 253.207031 C 138.945312 254.496094 140.414062 255.789062 142.597656 255.441406 C 145.148438 255.152344 147.089844 252.949219 149.753906 252.449219 C 150.121094 252.503906 150.078125 251.816406 149.757812 251.917969 C 147.417969 252.316406 145.644531 253.9375 143.351562 254.496094 C 140.3125 255.46875 138.382812 252.742188 136.277344 251.128906 C 132.070312 247.898438 127.03125 247.574219 122.277344 245.398438 C 119.425781 244.199219 116.476562 242.152344 114.917969 239.480469 C 113.257812 236.496094 113.617188 233.210938 114.398438 230.144531 C 114.964844 227.5 115.902344 224.914062 116.414062 222.109375 C 116.929688 219.304688 116.539062 216.4375 115.832031 213.671875 C 114.96875 210.429688 113.519531 207.546875 112.660156 204.304688 C 111.695312 200.742188 111.792969 197.191406 112.792969 193.703125 C 113.738281 190.585938 115.050781 187.523438 116.574219 184.574219 C 118.050781 181.460938 119.734375 178.460938 122.3125 176.050781 C 131.726562 166.878906 147.117188 171.988281 157.101562 163.511719 C 166.390625 155.613281 168.9375 139.3125 181.941406 135.859375 C 189.613281 133.929688 194.375 139.449219 198.125 145.109375 C 201.878906 150.773438 204.773438 157.0625 208.84375 162.625 C 212.238281 167.167969 216.433594 171.460938 221.875 173.589844 C 227.53125 175.828125 234.433594 175.90625 238.453125 181.308594 C 242.414062 187.082031 242.207031 195.242188 240.320312 201.476562 C 238.433594 207.710938 234.488281 213.023438 229.496094 217.257812 C 219.082031 226.046875 205.859375 229.925781 193.730469 235.5625 C 187.15625 238.722656 181.691406 242.582031 176.058594 247.023438 C 170.535156 251.253906 163.089844 256.101562 155.847656 253.3125 C 153.839844 252.546875 152.152344 251.679688 149.917969 251.867188 C 149.4375 252.019531 149.433594 252.550781 149.753906 252.449219 Z M 149.753906 252.449219 " fill-opacity="1" fill-rule="nonzero"/></g></g></g><g clip-path="url(#2b0baf2f98)"><g clip-path="url(#863e4c8c0d)"><g clip-path="url(#a2a7d68fc6)"><path fill="#5e548e" d="M 173.871094 40.605469 C 170.394531 50.628906 176.507812 61.277344 176.832031 71.800781 C 177.265625 83.339844 170.78125 93.851562 167.207031 104.769531 C 163.628906 115.691406 164.183594 130.15625 174.15625 135.894531 C 181.027344 139.894531 189.578125 138.027344 196.953125 135.097656 C 204.332031 132.164062 211.394531 128.101562 219.242188 127.476562 C 228.960938 126.675781 238.136719 131.421875 247.53125 133.84375 C 256.929688 136.265625 268.769531 135.570312 274.011719 127.492188 C 278.273438 120.90625 276.488281 112.007812 278.359375 104.347656 C 280.015625 97.796875 284.226562 92.269531 288.320312 86.945312 C 292.414062 81.625 296.582031 75.9375 298.078125 69.429688 C 299.367188 62.804688 297.15625 54.894531 290.96875 52.097656 C 284.113281 48.792969 275.460938 52.773438 268.375 49.882812 C 258.964844 45.546875 258.523438 32.097656 251.90625 24.027344 C 245.589844 16.394531 234.089844 14.558594 224.542969 17.226562 C 218.234375 18.988281 212.699219 22.273438 207.417969 25.839844 C 201.253906 29.996094 201.253906 29.996094 194.683594 29.570312 C 186.195312 29.15625 176.882812 31.410156 173.871094 40.605469 Z M 173.871094 40.605469 " fill-opacity="1" fill-rule="nonzero"/></g></g></g><g clip-path="url(#38b3e74887)"><g clip-path="url(#7c2d066389)"><g clip-path="url(#297e3614c4)"><path fill="#ac76b7" d="M 258.476562 28.804688 C 255.542969 28.925781 253.25 26.957031 250.507812 26.503906 C 247.398438 25.984375 244.027344 26.402344 241.042969 27.582031 C 234.105469 30.21875 228.625 35.578125 222.164062 39.296875 C 209.242188 46.734375 194.234375 49.1875 181.609375 57.066406 C 170.90625 63.710938 162.925781 74.46875 163.808594 87.621094 C 164.140625 93.792969 167.058594 99.242188 172.832031 101.808594 C 175.429688 102.996094 178.378906 103.5625 181.09375 104.546875 C 184.59375 105.832031 187.582031 107.78125 190.214844 110.351562 C 195.488281 115.492188 198.769531 122.234375 202.164062 128.769531 C 204.917969 134.261719 208.289062 141.328125 214.152344 144.214844 C 219.234375 146.796875 225.542969 145.035156 229.855469 141.742188 C 235.210938 137.808594 238.386719 131.699219 241.90625 126.191406 C 243.863281 123.210938 246.1875 120.296875 249.019531 117.941406 C 251.847656 115.582031 255.316406 114.265625 258.964844 113.59375 C 265.574219 112.273438 272.675781 112.722656 279.039062 109.902344 C 284.960938 107.378906 288.6875 101.984375 291.511719 96.496094 C 294.574219 90.597656 296.941406 84.714844 295.414062 78.003906 C 294.585938 74.40625 293.105469 70.992188 292.320312 67.554688 C 291.492188 63.960938 291.929688 60.53125 292.851562 56.964844 C 294.382812 51.839844 296.472656 46.207031 293.207031 41.378906 C 289.9375 36.546875 284.109375 35.042969 278.769531 33.402344 C 275.730469 32.511719 273.113281 30.632812 270.773438 28.5 C 269.351562 27.160156 267.929688 25.816406 265.734375 26.082031 C 263.175781 26.273438 261.152344 28.40625 258.476562 28.804688 C 258.105469 28.734375 258.125 29.425781 258.449219 29.335938 C 260.804688 29.023438 262.636719 27.46875 264.945312 26.996094 C 268.019531 26.136719 269.847656 28.933594 271.890625 30.625 C 275.972656 34.011719 281 34.519531 285.667969 36.871094 C 288.472656 38.175781 291.34375 40.332031 292.804688 43.058594 C 294.351562 46.105469 293.871094 49.371094 292.972656 52.40625 C 292.308594 55.027344 291.277344 57.578125 290.660156 60.363281 C 290.042969 63.144531 290.324219 66.027344 290.929688 68.816406 C 291.667969 72.089844 293.011719 75.019531 293.753906 78.292969 C 294.582031 81.890625 294.351562 85.4375 293.222656 88.882812 C 292.164062 91.964844 290.738281 94.972656 289.105469 97.867188 C 287.515625 100.921875 285.722656 103.859375 283.054688 106.171875 C 273.308594 114.984375 258.117188 109.308594 247.824219 117.40625 C 238.246094 124.953125 235.097656 141.148438 221.972656 144.117188 C 214.234375 145.757812 209.679688 140.070312 206.140625 134.269531 C 202.605469 128.472656 199.945312 122.078125 196.082031 116.371094 C 192.859375 111.699219 188.828125 107.257812 183.46875 104.925781 C 177.902344 102.480469 171.007812 102.144531 167.191406 96.597656 C 163.445312 90.679688 163.957031 82.53125 166.074219 76.371094 C 168.191406 70.210938 172.328125 65.054688 177.476562 61.003906 C 188.210938 52.609375 201.570312 49.226562 213.898438 44.042969 C 220.585938 41.128906 226.191406 37.476562 231.984375 33.246094 C 237.664062 29.222656 245.28125 24.660156 252.414062 27.714844 C 254.394531 28.554688 256.046875 29.484375 258.285156 29.378906 C 258.773438 29.242188 258.796875 28.714844 258.476562 28.804688 Z M 258.476562 28.804688 " fill-opacity="1" fill-rule="nonzero"/></g></g></g><path fill="#472726" d="M 232.492188 78.230469 C 232.453125 77.992188 232.453125 77.75 232.410156 77.507812 C 233.972656 76.707031 235.136719 75.183594 235.535156 73.460938 C 235.9375 71.734375 235.617188 69.609375 234.574219 68.207031 C 226.160156 65.078125 220.429688 57.21875 216.503906 49.160156 C 212.578125 41.097656 210.292969 32.078125 204.925781 24.898438 C 196.589844 13.671875 183.609375 10.261719 173.992188 13.511719 C 159.648438 8.257812 146.75 18.722656 136.652344 29.511719 C 126.554688 40.296875 119.824219 48.355469 113.773438 51.085938 C 113.773438 51.085938 115.777344 53.089844 120.464844 52.246094 C 120.464844 52.246094 116.257812 59.382812 117.578125 65.480469 C 117.578125 65.480469 119.625 60.988281 122.628906 58.664062 C 122.628906 58.664062 121.144531 65.441406 126.195312 70.574219 C 125.394531 68.808594 124.632812 63.195312 127.15625 59.867188 C 127.15625 59.867188 126.636719 71.09375 131.683594 72.578125 C 132.324219 72.699219 133.003906 72.816406 133.648438 72.898438 C 140.378906 78.953125 142.5 94.710938 142.5 94.710938 C 141.78125 96.558594 140.578125 98.160156 139.054688 99.402344 C 139.054688 100.085938 139.054688 101.890625 139.976562 102.773438 C 140.539062 103.292969 141.21875 103.65625 141.941406 103.976562 C 141.902344 104.015625 141.859375 104.054688 141.859375 104.09375 C 140.777344 104.015625 139.738281 103.65625 138.894531 102.972656 C 139.535156 104.054688 140.335938 104.976562 141.5 105.457031 C 141.5 105.5 141.5 105.578125 141.539062 105.621094 C 141.578125 105.859375 141.699219 106.101562 141.660156 106.339844 C 141.578125 106.742188 141.140625 106.902344 140.738281 107.023438 C 140.980469 107.0625 141.179688 107.183594 141.417969 107.144531 C 141.660156 107.144531 141.902344 107.0625 142.0625 106.902344 C 142.339844 106.582031 142.261719 106.140625 142.300781 105.738281 C 142.582031 105.820312 142.820312 105.859375 143.101562 105.898438 C 143.023438 107.542969 143.664062 109.347656 144.707031 110.511719 C 146.066406 111.996094 148.109375 112.796875 150.113281 112.917969 C 151.675781 113.039062 153.238281 112.757812 154.761719 112.316406 C 154.683594 112.675781 154.761719 113.039062 154.882812 113.359375 C 155.082031 113.757812 155.441406 114.082031 155.882812 114.242188 C 155.644531 113.757812 155.523438 113.15625 155.761719 112.675781 C 155.84375 112.554688 155.925781 112.4375 156.003906 112.316406 C 155.964844 112.515625 155.964844 112.675781 156.003906 112.796875 C 156.40625 113.917969 157.285156 114.84375 158.367188 115.324219 C 159.128906 115.644531 159.96875 115.683594 160.773438 115.484375 C 160.773438 115.765625 160.851562 116.046875 161.011719 116.285156 C 161.050781 116.367188 161.132812 116.484375 161.210938 116.566406 C 160.8125 116.605469 160.371094 116.605469 159.96875 116.527344 C 160.371094 117.246094 161.292969 117.488281 162.054688 117.328125 C 162.496094 117.246094 162.894531 117.007812 163.257812 116.726562 C 163.777344 117.085938 164.378906 117.328125 164.9375 117.488281 C 166.902344 117.96875 169.027344 117.890625 170.949219 117.246094 L 179.363281 113.078125 C 179.203125 112.476562 183.328125 103.292969 190.863281 92.789062 C 198.394531 82.242188 199.796875 95.113281 199.796875 95.113281 L 205.96875 101.769531 L 206.007812 102.570312 C 206.167969 102.332031 206.328125 102.050781 206.449219 101.769531 L 208.453125 96.917969 L 214.222656 100.847656 C 217.226562 99.722656 220.269531 97.359375 221.914062 93.347656 C 222.234375 93.589844 222.554688 93.75 222.914062 93.871094 C 222.636719 94.832031 222.113281 95.714844 221.394531 96.4375 C 222.234375 96.394531 222.914062 95.792969 223.394531 95.074219 C 223.597656 94.753906 223.796875 94.390625 223.957031 94.03125 C 224.078125 94.03125 224.238281 94.03125 224.359375 94.03125 C 225.199219 93.910156 226.039062 93.46875 226.5625 92.789062 C 226.121094 93.148438 225.398438 93.148438 224.71875 93.066406 C 224.839844 92.949219 224.917969 92.867188 225.039062 92.746094 C 225.480469 92.1875 225.921875 91.542969 226 90.824219 C 226 90.742188 226 90.664062 226 90.582031 C 229.246094 89.296875 232.453125 85.648438 232.53125 80.15625 C 232.8125 79.996094 233.09375 79.796875 233.332031 79.59375 C 234.535156 78.632812 235.535156 77.390625 235.65625 75.824219 C 235.015625 76.90625 233.8125 77.832031 232.492188 78.230469 Z M 161.894531 116.246094 C 161.734375 115.882812 161.695312 115.484375 161.773438 115.121094 C 161.773438 115.082031 161.8125 115.082031 161.8125 115.042969 C 161.972656 115.402344 162.214844 115.722656 162.496094 116.003906 C 162.292969 116.085938 162.09375 116.164062 161.894531 116.246094 Z M 222.996094 92.585938 C 222.753906 92.464844 222.515625 92.265625 222.394531 92.027344 C 222.515625 91.664062 222.636719 91.304688 222.714844 90.941406 C 222.753906 90.941406 222.796875 90.941406 222.835938 90.941406 C 223.074219 91.464844 223.15625 92.066406 223.15625 92.667969 C 223.117188 92.628906 223.074219 92.628906 222.996094 92.585938 Z M 224.71875 91.984375 C 224.636719 92.304688 224.519531 92.585938 224.359375 92.867188 C 224.476562 92.386719 224.519531 91.90625 224.558594 91.425781 C 224.558594 91.261719 224.558594 91.0625 224.558594 90.902344 C 224.597656 90.902344 224.679688 90.863281 224.71875 90.863281 C 224.757812 91.222656 224.796875 91.625 224.71875 91.984375 Z M 224.71875 91.984375 " fill-opacity="1" fill-rule="nonzero"/><path fill="#110c0e" d="M 214.261719 100.6875 C 210.132812 94.070312 212.335938 78.269531 211.65625 73.21875 L 189.78125 76.066406 L 175.476562 97.359375 L 179.402344 112.957031 L 190.78125 107.34375 C 191.824219 108.144531 193.667969 108.667969 195.308594 108.507812 C 195.070312 108.707031 194.789062 108.867188 194.507812 109.027344 C 194.066406 109.226562 193.546875 109.347656 193.066406 109.226562 C 195.949219 110.3125 199.074219 108.304688 199.15625 105.5 C 199.277344 105.5 199.394531 105.539062 199.554688 105.539062 C 198.957031 106.542969 201.199219 108.585938 203.722656 106.742188 C 203.402344 107.90625 202.121094 108.464844 202.121094 108.464844 C 204.886719 108.023438 205.207031 106.542969 204.523438 104.738281 C 204.445312 104.535156 204.363281 104.375 204.285156 104.253906 C 205.164062 103.65625 205.925781 102.851562 206.449219 101.730469 L 206.007812 101.648438 C 206.929688 96.835938 204.605469 91.34375 204.566406 91.261719 C 204.566406 91.261719 207.769531 96.71875 206.769531 101.808594 L 206.527344 101.769531 C 206.808594 102.210938 207.25 102.570312 207.769531 102.730469 C 208.613281 102.972656 209.574219 102.730469 210.335938 102.289062 C 209.613281 102.128906 208.851562 101.808594 208.332031 101.289062 C 209.972656 101.648438 212.097656 101.488281 214.261719 100.6875 Z M 202.320312 106.222656 C 201.238281 106.542969 201 105.859375 200.917969 105.457031 C 201.71875 105.339844 202.5625 105.136719 203.402344 104.738281 C 203.402344 104.738281 203.804688 105.78125 202.320312 106.222656 Z M 206.488281 101.648438 C 206.488281 101.691406 206.527344 101.730469 206.566406 101.769531 L 206.449219 101.730469 C 206.449219 101.691406 206.488281 101.691406 206.488281 101.648438 Z M 206.488281 101.648438 " fill-opacity="1" fill-rule="nonzero"/><path fill="#7e433f" d="M 212.058594 119.453125 C 208.773438 124.144531 204.566406 128.195312 199.597656 131.082031 C 190.421875 136.457031 175.917969 149.328125 165.980469 145.519531 C 160.050781 143.234375 157.6875 127.554688 154.039062 122.378906 C 159.289062 122.179688 166.179688 121.21875 167.785156 118.570312 C 169.425781 115.882812 168.945312 107.785156 168.542969 105.136719 C 167.703125 99.242188 171.992188 93.75 177.398438 91.304688 C 179.203125 90.5 181.164062 90.101562 183.089844 89.699219 C 186.175781 89.058594 189.257812 89.179688 192.34375 88.535156 C 191.183594 91.464844 192.222656 106.300781 192.34375 110.792969 C 192.464844 115.28125 200.597656 118.492188 205.6875 118.933594 C 207.890625 119.132812 210.015625 119.253906 212.058594 119.453125 Z M 212.058594 119.453125 " fill-opacity="1" fill-rule="nonzero"/><g clip-path="url(#cf016de6be)"><path fill="#472726" d="M 248.71875 191.671875 C 239.222656 197.003906 218.269531 204.183594 218.269531 204.183594 C 216.503906 201.335938 216.542969 194.039062 216.105469 188.585938 C 215.902344 186.019531 215.503906 180.925781 214.980469 175.875 C 211.898438 182.570312 207.449219 206.308594 207.449219 206.308594 C 157.164062 218.339844 129.320312 207.871094 129.320312 207.871094 C 128.238281 204.34375 127.835938 200.535156 127.71875 197.285156 C 127.71875 197.285156 126.355469 203.339844 123.511719 207.3125 C 119.101562 206.429688 114.9375 205.507812 111.050781 204.542969 C 94.621094 200.535156 83.644531 196.363281 83.644531 196.363281 C 82.882812 196.082031 81.71875 195.761719 81.71875 195.761719 C 81.601562 190.832031 83.242188 190.230469 83.601562 188.464844 C 83.964844 186.699219 84.164062 184.132812 85.605469 185.578125 L 86.648438 186.019531 L 109.40625 172.503906 L 134.847656 129.15625 C 137.414062 124.425781 142.382812 121.257812 148.472656 122.21875 L 155.804688 121.617188 L 159.050781 121.296875 L 161.132812 120.9375 C 162.375 120.65625 163.578125 120.175781 164.175781 120.214844 C 164.820312 120.253906 164.859375 120.695312 164.859375 120.695312 L 163.738281 121.058594 C 163.738281 121.058594 162.695312 122.339844 162.734375 123.945312 C 162.816406 125.828125 164.777344 127.3125 164.777344 127.3125 C 168.105469 129.878906 168.867188 129.960938 169.546875 131.722656 C 170.1875 133.488281 170.546875 141.46875 170.546875 141.46875 C 173.554688 134.492188 175.757812 131.605469 177.960938 130.078125 C 180.164062 128.515625 192.464844 126.792969 196.992188 119.855469 L 202.921875 118.449219 C 203.964844 118.691406 204.964844 118.851562 205.886719 118.933594 C 215.0625 119.734375 223.835938 119.695312 230.167969 126.390625 C 235.457031 132.003906 244.269531 176.234375 246.515625 180.523438 C 248.71875 184.777344 248.71875 190.109375 248.71875 191.671875 Z M 248.71875 191.671875 " fill-opacity="1" fill-rule="nonzero"/></g><path fill="#110c0e" d="M 147.992188 155.582031 C 147.992188 155.582031 159.648438 162.921875 181.925781 157.425781 C 181.925781 157.425781 172.871094 169.378906 162.535156 167.851562 C 152.199219 166.328125 147.992188 155.582031 147.992188 155.582031 Z M 147.992188 155.582031 " fill-opacity="1" fill-rule="nonzero"/><path fill="#a7534c" d="M 138.855469 118.933594 C 138.535156 120.617188 135.210938 124.105469 133.648438 124.507812 C 133.566406 125.988281 135.730469 131.082031 135.449219 133.609375 C 135.089844 136.9375 131.761719 139.664062 130 140.425781 C 128.71875 141.988281 123.46875 155.542969 119.382812 164.925781 C 116.097656 172.503906 114.65625 184.777344 112.730469 191.351562 C 108.726562 190.347656 90.574219 191.472656 85.488281 185.578125 C 87.53125 178.71875 90.894531 170.621094 94.660156 164.363281 C 100.871094 154.097656 112.011719 132.324219 111.691406 130.679688 C 111.328125 128.996094 107.964844 114.882812 107.523438 113.359375 C 107.082031 111.835938 105.878906 107.863281 106.5625 107.101562 C 107.601562 105.78125 110.808594 102.492188 113.453125 99.765625 C 112.933594 96.957031 112.453125 94.152344 111.929688 91.304688 C 111.851562 90.902344 111.808594 90.5 112.011719 90.179688 C 112.210938 89.898438 112.570312 89.78125 112.890625 89.738281 C 114.214844 89.578125 115.496094 90.382812 116.378906 91.382812 C 117.257812 92.386719 117.859375 93.628906 118.140625 94.914062 C 120.945312 91.90625 126.195312 86.089844 127.957031 84.046875 C 128.558594 83.324219 131.003906 84.445312 130.28125 87.816406 C 129.519531 91.183594 122.507812 99.285156 121.867188 100.246094 C 123.109375 99.324219 124.191406 99.125 125.113281 99.324219 C 126.234375 99.5625 127.355469 101.046875 127.835938 101.808594 C 128.359375 102.613281 128.078125 104.898438 128.078125 104.898438 C 128.078125 104.898438 128.71875 104.375 129.398438 104.136719 C 130.082031 103.894531 132.246094 105.78125 132.84375 106.703125 C 133.445312 107.625 133.246094 109.46875 133.246094 109.46875 C 133.925781 109.1875 134.808594 108.949219 135.449219 109.226562 C 136.132812 109.507812 137.171875 110.914062 137.492188 112.117188 C 137.8125 113.277344 139.015625 118.089844 138.855469 118.933594 Z M 203.601562 65.558594 C 200.15625 66.601562 198.394531 70.613281 198.394531 70.613281 C 196.070312 69.371094 192.222656 66.28125 192.222656 66.28125 C 192.222656 66.28125 190.339844 66.363281 187.695312 64.195312 C 184.933594 61.75 181.765625 58.34375 178.28125 53.691406 C 177.960938 61.308594 183.089844 66.363281 183.089844 66.363281 C 183.089844 66.363281 181.527344 66.804688 179.121094 67.484375 C 177.480469 67.925781 173.792969 65.480469 173.511719 62.710938 C 173.511719 62.710938 173.472656 67.644531 175.355469 68.488281 C 172.992188 69.089844 170.347656 69.769531 167.785156 70.371094 C 166.261719 70.25 160.53125 62.792969 160.8125 57.300781 C 160.8125 57.300781 159.289062 65.160156 163.695312 71.253906 C 160.210938 71.9375 157.328125 72.375 156.085938 72.097656 C 151.957031 71.214844 146.988281 63.714844 145.066406 55.335938 C 143.742188 66.683594 147.710938 72.859375 147.710938 72.859375 C 147.710938 72.859375 146.308594 73.019531 144.183594 73.140625 C 141.339844 73.21875 140.9375 62.472656 140.9375 62.472656 C 139.375 65 138.976562 70.371094 139.777344 73.21875 C 137.855469 73.21875 135.808594 73.097656 133.765625 72.816406 C 133.726562 72.9375 134.890625 75.625 135.410156 77.148438 C 137.453125 83.042969 140.339844 94.511719 141.140625 97.277344 C 142.179688 100.726562 156.726562 110.953125 162.773438 112.675781 C 168.824219 114.402344 190.460938 105.21875 196.511719 87.734375 C 196.511719 87.734375 209.855469 82.722656 211.375 75.625 C 212.9375 68.527344 207.050781 64.515625 203.601562 65.558594 Z M 203.601562 65.558594 " fill-opacity="1" fill-rule="nonzero"/><path fill="#f3eff9" d="M 129.199219 207.832031 C 130.441406 197.125 126.875 180.523438 128.117188 168.617188 C 129.558594 154.859375 141.78125 128.316406 147.910156 121.378906 C 148.792969 120.738281 151.316406 121.699219 154.882812 121.378906 C 158.449219 121.058594 160.570312 120.136719 161.53125 119.976562 C 161.894531 119.894531 162.175781 120.578125 162.175781 120.578125 L 161.011719 120.898438 C 155.402344 126.308594 148.550781 147.925781 147.46875 154.539062 C 147.46875 154.539062 155.925781 163.203125 159.488281 164.003906 C 163.054688 164.804688 180.363281 155.824219 187.375 156.503906 C 189.097656 143.03125 195.390625 118.8125 198.835938 117.167969 C 200.398438 116.566406 208.210938 118.53125 212.378906 118.289062 C 213.980469 119.695312 213.980469 119.695312 213.980469 119.695312 C 213.980469 119.695312 210.734375 124.34375 210.054688 129.199219 C 204.726562 167.53125 204.164062 192.355469 204.644531 197.648438 C 205.046875 202.058594 210.292969 200.855469 210.292969 200.855469 L 209.292969 205.746094 C 162.773438 219.742188 129.199219 207.832031 129.199219 207.832031 Z M 185.652344 73.660156 C 183.929688 73.621094 181.886719 73.339844 179.804688 73.21875 C 175.996094 72.976562 170.789062 75.785156 169.105469 78.472656 C 169.105469 78.472656 169.105469 85.730469 173.992188 87.734375 C 175.878906 88.054688 183.570312 87.613281 185.652344 83.804688 L 187.214844 77.832031 L 186.414062 74.222656 Z M 145.1875 77.308594 C 143.464844 77.589844 142.019531 78.3125 140.9375 78.992188 C 140.777344 86.570312 143.785156 89.179688 143.785156 89.179688 C 145.027344 90.0625 147.511719 90.902344 150.195312 90.941406 L 155.203125 81.359375 L 153.199219 78.550781 L 151.597656 77.75 C 149.914062 76.828125 147.789062 76.867188 145.1875 77.308594 Z M 145.1875 77.308594 " fill-opacity="1" fill-rule="nonzero"/><path fill="#472726" d="M 176.4375 78.472656 C 176.4375 77.75 176.519531 77.027344 176.679688 76.386719 C 177.441406 78.390625 179.363281 79.796875 181.605469 79.796875 C 184.25 79.796875 186.414062 77.871094 186.816406 75.34375 C 187.136719 76.304688 187.335938 77.390625 187.335938 78.511719 C 187.335938 82.5625 184.890625 85.890625 181.886719 85.890625 C 178.882812 85.851562 176.4375 82.5625 176.4375 78.472656 Z M 176.878906 75.585938 C 176.796875 75.824219 176.71875 76.066406 176.679688 76.347656 C 176.757812 76.066406 176.839844 75.824219 176.878906 75.585938 Z M 176.679688 76.386719 C 176.679688 76.386719 176.679688 76.347656 176.679688 76.304688 C 176.679688 76.347656 176.679688 76.347656 176.679688 76.386719 Z M 159.808594 89.660156 C 159.808594 89.660156 158.566406 92.507812 157.96875 93.828125 L 159.128906 94.351562 C 159.769531 92.867188 160.011719 91.261719 159.808594 89.660156 Z M 166.78125 100.6875 C 171.390625 99.285156 170.867188 96.074219 170.867188 96.074219 C 170.027344 98.359375 168.265625 99.445312 166.460938 99.925781 C 163.738281 100.648438 160.691406 100.808594 160.691406 100.808594 C 160.730469 100.847656 163.335938 101.691406 166.78125 100.6875 Z M 154.960938 81.359375 C 155.003906 81.4375 155.003906 81.480469 155.042969 81.558594 C 155.003906 81.519531 155.003906 81.4375 154.960938 81.359375 Z M 154.722656 80.878906 C 154.800781 81 154.84375 81.117188 154.921875 81.238281 C 154.84375 81.160156 154.800781 81.039062 154.722656 80.878906 Z M 154.921875 81.277344 C 154.921875 81.320312 154.960938 81.359375 154.960938 81.359375 C 154.960938 81.320312 154.921875 81.320312 154.921875 81.277344 Z M 155.042969 81.558594 C 154.160156 83.164062 152.476562 84.246094 150.515625 84.246094 C 147.949219 84.246094 145.828125 82.402344 145.425781 79.957031 C 145.507812 79.796875 145.585938 79.636719 145.667969 79.515625 C 144.984375 80.71875 144.585938 82.203125 144.585938 83.804688 C 144.585938 87.773438 147.027344 90.984375 150.035156 90.984375 C 153.039062 90.984375 155.484375 87.773438 155.484375 83.804688 C 155.484375 83.484375 155.441406 83.164062 155.441406 82.882812 C 155.441406 82.882812 155.363281 82.320312 155.042969 81.558594 Z M 163.375 112.195312 L 163.296875 112.195312 C 161.652344 112.15625 158.609375 110.832031 158.167969 110.671875 C 158.449219 111.03125 161.332031 113.316406 163.296875 113.398438 L 163.375 113.398438 C 163.617188 113.398438 163.9375 113.398438 164.296875 113.398438 C 167.140625 113.398438 173.472656 112.796875 182.890625 105.980469 C 182.890625 105.980469 171.871094 110.953125 168.625 111.675781 C 166.019531 112.277344 164.296875 112.234375 163.375 112.195312 Z M 117.902344 105.058594 C 119.0625 103.65625 120.464844 101.890625 122.109375 100.488281 L 121.585938 99.886719 C 119.902344 101.328125 118.421875 103.132812 117.257812 104.535156 C 116.175781 105.859375 114.816406 107.984375 114.816406 107.984375 C 115.65625 107.824219 116.578125 106.660156 117.902344 105.058594 Z M 128.359375 105.21875 L 127.878906 104.578125 C 126.074219 105.941406 123.910156 108.746094 122.1875 110.992188 C 120.945312 112.597656 119.664062 115.082031 119.664062 115.082031 C 120.265625 114.761719 121.226562 113.558594 122.828125 111.472656 C 124.511719 109.269531 126.59375 106.5 128.359375 105.21875 Z M 133.046875 109.347656 C 131.804688 110.109375 129.839844 112.515625 127.917969 114.84375 C 126.554688 116.484375 124.871094 119.292969 124.871094 119.292969 C 125.511719 119.050781 126.59375 117.6875 128.519531 115.363281 C 130.28125 113.199219 132.324219 110.710938 133.445312 110.03125 Z M 132.886719 119.894531 C 132.644531 118.933594 132.445312 118.25 132.445312 118.25 C 132.324219 119.332031 132.445312 120.777344 132.683594 122.101562 C 132.683594 122.101562 132.683594 122.140625 132.683594 122.140625 C 132.84375 123.101562 133.046875 123.984375 133.207031 124.625 L 133.96875 124.425781 C 133.847656 123.90625 133.605469 122.980469 133.367188 122.019531 L 133.445312 122.019531 C 133.164062 119.375 135.210938 117.328125 135.210938 117.328125 C 133.847656 117.96875 133.207031 118.972656 132.886719 119.894531 Z M 134.808594 116.96875 C 134.808594 116.925781 135.730469 113.960938 136.371094 112.996094 L 135.691406 112.554688 C 135.007812 113.640625 134.808594 116.96875 134.808594 116.96875 Z M 114.976562 116.484375 C 114.65625 116.246094 114.335938 116.046875 114.015625 115.804688 C 113.652344 115.5625 113.292969 115.324219 112.972656 115.042969 C 112.210938 114.402344 110.527344 112.996094 110.527344 112.996094 C 110.929688 114.039062 111.609375 114.921875 112.453125 115.644531 C 112.8125 115.964844 113.210938 116.207031 113.574219 116.445312 C 113.894531 116.648438 114.175781 116.847656 114.453125 117.085938 C 115.175781 117.648438 116.5 118.652344 116.5 118.652344 C 116.378906 117.890625 115.855469 117.128906 114.976562 116.484375 Z M 117.539062 122.140625 C 118.101562 123.824219 119.742188 124.988281 121.507812 124.988281 C 121.546875 124.988281 121.585938 124.988281 121.625 124.988281 L 121.585938 124.183594 C 120.222656 124.265625 117.539062 122.140625 117.539062 122.140625 Z M 132.484375 107.023438 L 130.722656 111.273438 C 132.566406 109.46875 132.484375 107.101562 132.484375 107.023438 Z M 117.140625 96.316406 L 113.210938 99.484375 L 113.8125 100.003906 Z M 125.554688 141.667969 C 125.914062 141.75 126.316406 141.789062 126.675781 141.789062 C 127.917969 141.789062 129.121094 141.386719 130.121094 140.667969 L 129.640625 140.023438 C 128.519531 140.828125 125.554688 141.667969 125.554688 141.667969 Z M 111.328125 130.722656 C 111.851562 131.964844 113.132812 134.492188 113.132812 134.492188 C 112.972656 133.085938 112.613281 131.722656 112.050781 130.402344 Z M 208.652344 125.429688 C 207.53125 129.917969 206.289062 137.820312 205.367188 152.175781 C 205.367188 152.175781 208.210938 130.800781 209.292969 126.308594 C 210.375 121.820312 211.335938 120.496094 211.855469 119.8125 L 211.9375 119.695312 C 211.976562 119.652344 209.695312 121.339844 208.652344 125.429688 Z M 188.859375 199.332031 C 189.179688 199.292969 189.339844 199.292969 189.339844 199.292969 C 189.179688 199.332031 189.019531 199.332031 188.859375 199.332031 Z M 168.867188 192.636719 C 164.457031 189.46875 162.496094 185.136719 162.496094 185.136719 C 162.535156 185.296875 168.265625 199.53125 185.171875 199.53125 C 186.335938 199.53125 187.578125 199.453125 188.859375 199.332031 C 186.894531 199.53125 178.683594 199.691406 168.867188 192.636719 Z M 160.332031 187.140625 C 160.332031 187.140625 161.09375 176.515625 157.726562 163.484375 C 157.726562 163.484375 159.730469 180.484375 160.332031 187.140625 Z M 142.300781 151.734375 C 145.347656 152.695312 147.992188 155.582031 147.992188 155.582031 L 147.550781 154.21875 C 145.027344 151.695312 142.300781 151.734375 142.300781 151.734375 Z M 187.257812 156.824219 C 187.257812 156.824219 201.320312 158.710938 201.640625 158.789062 C 201.960938 158.832031 187.417969 156.0625 187.417969 156.0625 Z M 137.292969 154.660156 C 136.851562 155.382812 136.8125 156.304688 136.8125 157.148438 C 136.851562 157.910156 136.933594 158.75 137.332031 159.390625 C 137.734375 160.074219 138.535156 160.554688 139.296875 160.394531 C 139.777344 160.316406 140.175781 159.953125 140.457031 159.554688 C 140.738281 159.152344 140.898438 158.671875 141.019531 158.230469 C 141.300781 157.105469 141.417969 155.902344 140.980469 154.820312 C 140.296875 153.136719 138.175781 153.136719 137.292969 154.660156 Z M 187.097656 159.914062 C 186.65625 160.636719 186.613281 161.558594 186.613281 162.398438 C 186.65625 163.160156 186.734375 164.003906 187.136719 164.644531 C 187.535156 165.328125 188.335938 165.808594 189.097656 165.648438 C 189.578125 165.566406 189.980469 165.207031 190.261719 164.804688 C 190.542969 164.40625 190.703125 163.921875 190.820312 163.484375 C 191.101562 162.359375 191.222656 161.15625 190.78125 160.074219 C 190.101562 158.390625 187.976562 158.390625 187.097656 159.914062 Z M 203.28125 69.851562 C 204.324219 68.488281 205.886719 68.328125 205.886719 68.328125 C 204.84375 68.207031 203.722656 68.566406 202.84375 69.289062 C 201.960938 70.011719 201.398438 71.054688 201.28125 72.097656 C 201.199219 72.738281 201.320312 73.417969 201.398438 74.019531 C 201.480469 74.742188 201.601562 75.382812 201.480469 76.066406 C 201.398438 76.546875 201.160156 77.027344 200.957031 77.507812 C 200.757812 77.992188 200.519531 78.472656 200.398438 79.035156 C 200.277344 79.554688 200.316406 79.957031 200.519531 80.277344 C 200.757812 80.71875 201.28125 81 201.878906 81 C 201.921875 81 201.960938 81 202 81 C 202.5625 80.957031 203.042969 80.675781 203.402344 80.4375 C 203.402344 80.4375 201.71875 81 201.121094 79.957031 C 201.039062 79.796875 201 79.515625 201.078125 79.195312 C 201.160156 78.710938 201.359375 78.3125 201.601562 77.832031 C 201.839844 77.308594 202.082031 76.789062 202.160156 76.226562 C 202.320312 75.464844 202.199219 74.703125 202.082031 73.980469 C 202 73.378906 201.921875 72.777344 201.960938 72.214844 C 202.082031 71.292969 202.683594 70.613281 203.28125 69.851562 Z M 203.28125 69.851562 " fill-opacity="1" fill-rule="nonzero"/><path fill="#7e433f" d="M 172.03125 14.273438 C 158.40625 11.746094 148.953125 21.972656 144.425781 26.863281 C 141.339844 30.351562 137.773438 34.601562 133.246094 39.777344 C 133.246094 39.777344 126.035156 49 126.753906 51.765625 C 127.195312 51.847656 127.636719 51.925781 127.757812 51.964844 C 127.757812 51.964844 124.832031 59.382812 124.871094 61.148438 L 123.949219 60.746094 C 123.671875 63.195312 123.789062 65.960938 124.710938 68.648438 C 121.546875 64.398438 122.628906 58.542969 122.628906 58.542969 C 119.625 60.910156 117.578125 65.359375 117.578125 65.359375 C 116.257812 59.304688 120.464844 52.125 120.464844 52.125 C 115.777344 52.96875 113.773438 50.964844 113.773438 50.964844 C 119.824219 48.277344 126.554688 40.175781 136.652344 29.390625 C 144.464844 21.050781 153.960938 12.910156 164.5 12.066406 C 169.667969 11.507812 173.3125 13.109375 173.753906 13.308594 C 175.515625 12.546875 177.679688 12.027344 180.324219 12.066406 C 180.324219 12.066406 186.175781 12.507812 188.335938 13.191406 C 188.335938 13.191406 176.878906 12.667969 167.625 18.722656 C 167.582031 18.765625 168.867188 16.199219 172.03125 14.273438 Z M 132.726562 52.808594 C 132.363281 53.007812 132.003906 53.410156 131.601562 53.328125 C 131.28125 53.25 131.082031 52.886719 130.84375 52.648438 C 130.5625 52.367188 130.121094 52.125 129.71875 52.207031 C 128.519531 54.171875 127.996094 62.03125 127.996094 62.03125 C 128.359375 62.390625 128.957031 62.390625 129.398438 62.191406 C 129.679688 62.070312 129.921875 61.871094 130.199219 61.832031 C 130.640625 61.789062 130.960938 62.152344 131.324219 62.351562 C 131.644531 62.550781 131.925781 62.875 132.324219 62.792969 C 131.804688 59.546875 132.886719 52.367188 132.886719 52.367188 C 132.683594 52.449219 132.925781 52.6875 132.726562 52.808594 Z M 142.582031 52.40625 C 142.382812 52.648438 142.222656 53.007812 141.902344 53.050781 C 141.738281 53.050781 141.578125 53.007812 141.460938 52.929688 C 140.335938 52.527344 139.097656 53.371094 137.933594 53.050781 C 137.53125 52.929688 137.132812 52.6875 136.730469 52.527344 C 136.332031 52.367188 135.570312 52.167969 135.449219 52.566406 C 134.890625 54.332031 134.449219 63.113281 134.449219 63.113281 C 134.847656 63.476562 135.210938 63.714844 135.769531 63.714844 C 136.210938 63.714844 136.570312 63.476562 136.972656 63.3125 C 137.371094 63.195312 137.855469 63.152344 138.292969 63.273438 C 138.613281 63.355469 138.855469 63.433594 139.175781 63.394531 C 139.214844 61.910156 141.699219 54.210938 141.699219 54.210938 C 141.257812 56.816406 142.421875 63.433594 142.421875 63.433594 L 143.863281 63.476562 L 143.421875 52.285156 C 143.101562 52.246094 142.820312 52.125 142.582031 52.40625 Z M 150.355469 51.566406 C 149.792969 51.726562 149.714844 51.203125 149.234375 51.523438 C 149.03125 51.644531 148.953125 51.886719 148.832031 52.085938 C 148.710938 52.285156 148.511719 52.488281 148.269531 52.488281 C 148.109375 52.488281 147.992188 52.40625 147.832031 52.328125 C 147.390625 52.085938 146.75 52.167969 146.269531 52.167969 C 146.269531 52.167969 148.269531 61.671875 149.714844 63.59375 C 149.914062 63.875 150.316406 63.835938 150.59375 63.636719 C 150.714844 63.554688 150.796875 63.433594 150.914062 63.355469 C 151.234375 63.152344 151.636719 63.152344 151.996094 63.234375 C 152.359375 63.3125 152.316406 63.554688 152.679688 63.394531 C 152.679688 63.394531 149.753906 54.25 150.355469 51.566406 Z M 158.527344 50.882812 C 157.847656 50.882812 157.246094 51.203125 156.644531 51.484375 C 156.042969 51.726562 155.363281 51.964844 154.722656 51.765625 C 154.402344 51.6875 154.121094 51.484375 153.800781 51.40625 C 153.480469 51.324219 153.078125 51.285156 152.917969 51.566406 C 152.917969 51.566406 154.320312 62.070312 156.203125 63.3125 C 156.484375 63.476562 157.003906 63.195312 157.328125 63.152344 C 157.886719 63.035156 158.289062 62.953125 158.847656 63.152344 C 158.847656 63.152344 159.050781 51.847656 159.929688 50.601562 C 159.53125 50.964844 159.050781 50.84375 158.527344 50.882812 Z M 162.453125 50.5625 C 162.453125 50.5625 162.453125 50.601562 162.496094 50.683594 C 162.574219 49.800781 162.453125 50.5625 162.453125 50.5625 Z M 162.453125 50.84375 C 162.335938 51.964844 163.898438 62.03125 163.898438 62.03125 L 166.019531 62.03125 C 164.9375 60.585938 162.734375 51.726562 162.496094 50.644531 C 162.496094 50.683594 162.453125 50.761719 162.453125 50.84375 Z M 171.992188 48.71875 C 171.949219 48.796875 171.871094 48.878906 171.789062 48.957031 C 171.671875 49.039062 171.511719 49.039062 171.390625 49 C 171.109375 49 170.867188 48.957031 170.589844 48.957031 C 170.347656 48.957031 170.109375 48.917969 169.90625 49 C 169.707031 49.078125 169.386719 49.199219 169.425781 49.398438 C 170.226562 53.210938 174.714844 60.507812 174.714844 60.507812 C 174.835938 60.585938 174.996094 60.386719 175.15625 60.425781 C 175.316406 60.425781 175.476562 60.386719 175.515625 60.265625 C 175.554688 60.148438 175.554688 60.027344 175.636719 59.945312 C 175.757812 59.785156 175.996094 59.746094 176.199219 59.824219 C 176.398438 59.90625 176.558594 60.027344 176.757812 60.066406 C 177.078125 60.105469 177.480469 60.1875 177.761719 60.027344 C 177.199219 58.984375 173.191406 48.035156 173.191406 48.035156 C 172.671875 47.996094 172.3125 48.238281 171.992188 48.71875 Z M 202.402344 34.722656 C 201.398438 35.003906 200.277344 36.40625 199.234375 36.648438 C 198.914062 36.726562 198.554688 36.6875 198.316406 36.847656 C 198.074219 37.007812 197.914062 37.289062 197.714844 37.492188 C 196.832031 38.371094 195.027344 37.929688 194.347656 38.972656 C 194.148438 39.292969 194.066406 39.695312 193.785156 39.976562 C 193.464844 40.257812 192.984375 40.257812 192.542969 40.335938 C 191.625 40.457031 190.703125 40.859375 190.019531 41.5 C 189.578125 41.941406 189.179688 42.460938 188.617188 42.664062 C 188.21875 42.824219 187.738281 42.785156 187.296875 42.902344 C 185.972656 43.265625 185.210938 44.910156 183.808594 45.070312 C 183.371094 45.109375 182.929688 45.027344 182.488281 45.109375 C 181.648438 45.308594 181.046875 46.191406 180.203125 46.152344 C 179.84375 46.152344 179.042969 45.871094 178.84375 46.191406 C 178.320312 46.351562 185.210938 55.535156 187.015625 56.859375 C 187.296875 57.058594 187.695312 56.898438 188.015625 56.816406 C 188.136719 56.777344 188.21875 56.777344 188.296875 56.699219 C 188.378906 56.617188 188.417969 56.457031 188.5 56.335938 C 188.660156 56.054688 189.019531 55.976562 189.378906 55.976562 C 189.699219 55.976562 190.0625 56.054688 190.382812 55.976562 C 190.582031 55.9375 190.78125 55.816406 190.980469 55.734375 C 191.183594 55.617188 191.421875 55.496094 191.625 55.375 C 191.902344 55.214844 192.785156 54.933594 192.746094 54.613281 C 192.746094 54.613281 191.261719 52.929688 190.261719 50.160156 C 190.261719 50.160156 193.988281 54.414062 196.191406 53.371094 C 196.472656 53.25 196.3125 52.769531 196.589844 52.566406 C 196.671875 52.527344 196.75 52.527344 196.871094 52.527344 C 197.351562 52.527344 197.914062 52.6875 198.273438 52.367188 C 198.476562 52.207031 198.554688 51.925781 198.753906 51.726562 C 199.035156 51.445312 199.476562 51.40625 199.878906 51.324219 C 200.277344 51.246094 200.71875 51.003906 200.757812 50.601562 L 201.878906 50.484375 C 201.878906 50.484375 199.15625 45.390625 198.273438 44.347656 C 198.273438 44.347656 203.003906 47.917969 203.722656 49.679688 C 204.003906 49.441406 204.363281 49.160156 204.484375 48.839844 C 204.605469 48.558594 204.605469 48.238281 204.804688 48.035156 C 205.164062 47.714844 205.6875 48.078125 206.167969 48.078125 C 206.246094 48.078125 206.328125 48.078125 206.40625 47.996094 C 206.488281 47.917969 206.527344 47.796875 206.566406 47.675781 C 206.769531 47.316406 207.289062 47.394531 207.691406 47.394531 C 207.769531 47.394531 207.851562 47.394531 207.890625 47.355469 C 208.089844 47.234375 208.011719 46.953125 208.050781 46.753906 C 208.132812 46.273438 208.730469 46.152344 209.210938 46.152344 C 209.695312 46.152344 210.292969 46.191406 210.535156 45.75 C 210.453125 45.46875 210.734375 45.027344 211.015625 44.949219 C 211.296875 44.910156 211.617188 44.949219 211.898438 44.867188 C 212.175781 44.789062 212.578125 44.589844 212.457031 44.308594 C 212.738281 44.1875 205.886719 35.847656 202.402344 34.722656 Z M 229.40625 79.433594 C 227.28125 76.027344 216.90625 68.046875 216.90625 68.046875 C 217.988281 70.089844 219.109375 72.175781 219.628906 74.460938 C 220.03125 76.347656 220.03125 78.3125 220.511719 80.15625 C 220.953125 81.839844 221.832031 83.363281 222.996094 84.648438 C 223.355469 84.6875 223.675781 84.445312 223.996094 84.246094 C 224.316406 84.003906 224.359375 83.605469 224.476562 83.242188 C 224.636719 82.761719 224.917969 82.28125 225.398438 82.160156 C 225.800781 82.039062 226.242188 82.203125 226.640625 82.082031 C 227.121094 81.921875 227.402344 81.359375 227.5625 80.878906 C 227.761719 80.398438 228.042969 79.875 228.523438 79.714844 C 228.726562 79.675781 228.925781 79.675781 229.125 79.636719 C 229.328125 79.59375 229.488281 79.59375 229.40625 79.433594 Z M 202 71.574219 C 201.480469 72.699219 202.242188 75.023438 202.242188 76.027344 C 202.242188 77.027344 201.039062 78.953125 201.320312 80.234375 C 201.601562 81.519531 203.722656 80.515625 203.722656 80.515625 C 212.417969 76.304688 208.652344 68.007812 206.246094 68.40625 C 203.402344 68.207031 202.523438 70.410156 202 71.574219 Z M 202 71.574219 " fill-opacity="1" fill-rule="nonzero"/><g clip-path="url(#1fc08523bd)"><path fill="#110c0e" d="M 176.039062 78.472656 C 176.039062 82.683594 178.601562 86.132812 181.765625 86.210938 C 178.121094 87.574219 173.792969 87.734375 173.792969 87.734375 C 174.152344 87.816406 175.394531 88.859375 180.125 87.65625 C 182.40625 87.09375 183.769531 86.132812 184.613281 85.328125 C 186.496094 84.046875 187.777344 81.4375 187.777344 78.433594 C 187.777344 76.867188 187.417969 75.304688 186.734375 74.019531 C 188.660156 73.699219 188.539062 72.578125 188.539062 72.578125 C 186.054688 73.179688 184.613281 71.816406 179.324219 72.054688 C 173.832031 72.296875 170.347656 75.503906 169.144531 78.433594 C 169.144531 78.433594 172.992188 75.265625 177.078125 74.0625 C 176.398438 75.382812 176.039062 76.90625 176.039062 78.472656 Z M 186.816406 76.828125 C 186.894531 77.390625 186.976562 77.949219 186.976562 78.511719 C 186.976562 82.363281 184.691406 85.488281 181.925781 85.488281 C 179.164062 85.488281 176.878906 82.363281 176.878906 78.511719 C 176.878906 78.230469 176.878906 77.949219 176.917969 77.671875 C 177.761719 78.914062 179.042969 79.796875 180.484375 80.074219 C 180.644531 80.957031 181.488281 81.960938 182.890625 81.480469 C 184.050781 81.078125 184.132812 80.074219 184.089844 79.636719 C 185.292969 79.074219 186.253906 78.070312 186.816406 76.828125 Z M 178.160156 73.859375 C 178.722656 73.738281 179.28125 73.660156 179.804688 73.660156 C 180.726562 73.699219 181.605469 73.78125 182.488281 73.859375 C 183.929688 74.140625 185.011719 74.222656 185.855469 74.179688 C 186.054688 74.542969 186.253906 74.984375 186.414062 75.382812 C 186.015625 77.710938 184.011719 79.394531 181.605469 79.394531 C 179.644531 79.394531 177.839844 78.191406 177.078125 76.347656 C 177.320312 75.425781 177.679688 74.582031 178.160156 73.859375 Z M 152.878906 78.070312 C 151.234375 76.546875 148.914062 75.785156 146.109375 76.144531 C 142.140625 76.628906 139.457031 79.554688 138.535156 79.273438 C 138.535156 79.273438 138.976562 80.796875 141.460938 79.554688 L 141.820312 79.3125 C 142.980469 78.59375 144.542969 77.550781 146.269531 77.429688 C 146.46875 77.429688 146.707031 77.390625 146.910156 77.390625 C 145.226562 78.753906 144.183594 81.160156 144.183594 83.804688 C 144.183594 86.53125 145.304688 88.9375 147.027344 90.300781 C 145.027344 89.820312 143.785156 89.21875 143.785156 89.21875 C 143.785156 89.21875 144.746094 90.621094 147.347656 91.144531 C 147.992188 91.261719 148.550781 91.304688 149.03125 91.304688 C 149.351562 91.382812 149.671875 91.425781 150.035156 91.425781 C 153.28125 91.425781 155.882812 88.015625 155.882812 83.84375 C 155.882812 83.566406 155.882812 83.242188 155.84375 82.84375 C 155.84375 82.761719 155.28125 79.875 152.878906 78.070312 Z M 148.109375 77.550781 C 148.710938 77.507812 149.273438 77.550781 149.792969 77.628906 C 150.957031 77.910156 151.878906 78.3125 152.636719 78.832031 C 153.679688 79.636719 154.28125 80.675781 154.640625 81.519531 C 153.800781 82.964844 152.238281 83.84375 150.554688 83.84375 C 148.269531 83.84375 146.308594 82.242188 145.867188 79.996094 C 146.386719 78.953125 147.148438 78.070312 148.109375 77.550781 Z M 150.035156 90.582031 C 147.230469 90.582031 144.984375 87.535156 144.984375 83.804688 C 144.984375 82.882812 145.105469 82 145.386719 81.199219 C 145.90625 82.480469 146.910156 83.523438 148.152344 84.125 C 148.152344 84.726562 148.3125 85.691406 149.472656 85.851562 C 150.636719 86.011719 150.996094 85.167969 151.117188 84.605469 C 152.636719 84.445312 154.039062 83.683594 154.960938 82.441406 C 155.042969 82.683594 155.082031 82.84375 155.082031 82.882812 C 155.121094 83.203125 155.121094 83.523438 155.121094 83.765625 C 155.082031 87.535156 152.839844 90.582031 150.035156 90.582031 Z M 134.128906 57.660156 C 133.527344 63.394531 134.046875 68.40625 134.046875 68.40625 C 134.046875 68.328125 132.964844 63.554688 133.328125 57.660156 C 133.765625 50.804688 136.453125 46.554688 136.453125 46.554688 C 134.890625 50.121094 134.847656 50.84375 134.128906 57.660156 Z M 99.710938 196.445312 C 97.425781 196.242188 93.300781 194.480469 93.300781 194.480469 C 95.261719 195.121094 97.625 195.480469 99.871094 195.683594 C 103.636719 196.003906 107.964844 196.523438 107.964844 196.523438 C 107.484375 196.566406 106.121094 196.644531 104.316406 196.644531 C 102.957031 196.605469 101.394531 196.566406 99.710938 196.445312 Z M 218.910156 97.160156 C 219.949219 96.074219 222.074219 93.027344 222.074219 93.027344 C 219.511719 99.164062 214.101562 101.851562 210.09375 101.851562 C 209.414062 101.851562 208.8125 101.769531 208.25 101.648438 L 208.410156 100.847656 C 211.175781 101.527344 215.664062 100.566406 218.910156 97.160156 Z M 230.167969 86.613281 C 231.328125 84.96875 232.570312 80.035156 232.570312 80.035156 C 232.570312 80.035156 232.089844 85.207031 230.890625 86.972656 C 229.566406 88.9375 226.039062 90.5 226.039062 90.5 C 226.039062 90.5 228.925781 88.375 230.167969 86.613281 Z M 222.714844 90.941406 C 222.714844 90.941406 219.75 89.898438 218.789062 88.777344 C 216.105469 85.53125 215.464844 80.597656 214.980469 76.707031 C 214.660156 74.179688 214.339844 70.53125 214.339844 70.53125 C 215.140625 71.773438 215.421875 74.019531 215.785156 76.628906 C 216.304688 80.558594 216.867188 85.167969 219.347656 88.175781 C 220.230469 89.21875 222.714844 90.941406 222.714844 90.941406 Z M 98.46875 199.050781 L 111.371094 197.527344 C 108.84375 198.609375 104.519531 199.332031 101.273438 199.332031 C 100.152344 199.332031 99.1875 199.210938 98.46875 199.050781 Z M 246.714844 180.324219 C 245.953125 178.839844 244.269531 172.105469 242.347656 164.285156 C 238.542969 148.925781 233.8125 129.800781 230.328125 126.070312 C 225.679688 121.179688 219.871094 119.894531 214.261719 119.253906 C 214.101562 119.132812 213.738281 118.851562 212.738281 118.011719 L 212.617188 117.890625 L 212.457031 117.890625 C 210.375 118.011719 207.371094 117.570312 204.726562 117.167969 C 201.839844 116.726562 199.917969 116.484375 198.996094 116.726562 C 195.109375 115.082031 192.867188 112.878906 192.785156 110.710938 C 192.746094 109.75 192.707031 108.347656 192.625 106.742188 C 192.464844 103.695312 192.304688 99.886719 192.265625 96.476562 C 194.269531 93.789062 195.789062 90.902344 196.832031 87.976562 C 198.476562 87.332031 210.292969 82.480469 211.777344 75.625 C 212.296875 73.300781 212.058594 71.054688 211.097656 69.207031 C 210.453125 65.640625 209.414062 62.230469 208.171875 59.0625 C 206.167969 54.050781 200.679688 46.714844 200.679688 46.714844 C 204.042969 51.726562 207.890625 58.78125 209.8125 66.804688 C 209.371094 66.601562 208.933594 66.402344 208.453125 66.160156 C 208.050781 65.878906 207.648438 65.640625 207.210938 65.480469 C 199.996094 61.1875 191.34375 51.886719 191.34375 51.886719 C 194.46875 56.015625 199.316406 61.269531 204.804688 64.917969 C 204.324219 64.917969 203.882812 64.957031 203.484375 65.078125 C 200.519531 65.960938 198.753906 68.886719 198.195312 69.972656 C 196.589844 69.046875 194.46875 67.445312 193.304688 66.5625 C 189.621094 62.671875 181.605469 52.769531 181.605469 52.769531 C 182.40625 53.929688 187.054688 60.746094 191.421875 65.71875 C 190.660156 65.558594 189.417969 65.078125 187.898438 63.835938 C 184.773438 61.070312 181.648438 57.539062 178.523438 53.410156 L 177.839844 52.488281 L 177.839844 52.527344 C 174.796875 47.753906 172.351562 43.707031 172.351562 43.707031 C 172.511719 44.105469 174.476562 48.878906 177.800781 54.011719 C 177.679688 60.1875 181.003906 64.597656 182.246094 66.082031 C 181.566406 66.242188 180.363281 66.5625 178.921875 67.042969 C 178 67.363281 174.875 65.558594 174.035156 63.234375 L 173.992188 63.152344 L 173.914062 63.074219 C 173.875 63.035156 173.832031 62.992188 173.792969 62.953125 C 170.789062 57.820312 168.746094 50.484375 168.746094 50.484375 C 168.824219 50.921875 170.109375 58.019531 173.03125 63.195312 C 173.03125 63.355469 173.074219 63.476562 173.074219 63.554688 C 173.074219 63.59375 173.074219 63.59375 173.074219 63.59375 C 173.191406 65.238281 173.511719 67.203125 174.394531 68.207031 C 173.511719 68.445312 172.671875 68.648438 171.871094 68.847656 C 169.988281 67.683594 168.464844 65 167.304688 61.628906 C 166.101562 58.222656 165.257812 54.089844 164.738281 50.082031 C 163.976562 44.066406 163.976562 38.371094 164.699219 35.804688 C 164.699219 35.804688 162.695312 39.9375 163.816406 50.402344 C 164.296875 55.054688 165.460938 59.785156 167.101562 63.476562 C 168.785156 67.203125 171.1875 68.566406 171.789062 68.847656 C 170.347656 69.207031 168.945312 69.570312 167.625 69.851562 C 166.382812 69.609375 161.695312 63.59375 161.132812 58.582031 C 161.132812 58.582031 161.132812 58.542969 161.132812 58.542969 C 161.132812 58.421875 161.09375 58.300781 161.09375 58.140625 C 161.050781 57.820312 161.050781 57.5 161.09375 57.21875 L 160.972656 57.21875 C 160.691406 55.375 160.371094 52.886719 160.371094 52.886719 C 160.171875 54.574219 160.132812 56.136719 160.25 57.539062 C 160.011719 59.183594 159.371094 65.558594 162.9375 70.894531 C 161.171875 71.253906 159.851562 71.453125 158.808594 71.574219 C 157.847656 69.972656 155.203125 65.398438 153.480469 60.027344 C 152.398438 56.65625 151.15625 49.519531 151.15625 49.519531 C 150.875 53.210938 151.554688 56.980469 152.679688 60.425781 C 154.402344 65.640625 157.046875 69.972656 158.527344 71.65625 C 157.164062 71.816406 156.445312 71.773438 156.042969 71.695312 C 152.078125 70.851562 147.148438 63.3125 145.304688 55.214844 L 145.1875 54.734375 C 144.503906 51.484375 143.304688 45.109375 143.304688 45.109375 C 143.464844 49.078125 143.863281 52.488281 144.464844 55.375 C 143.382812 64.878906 145.945312 70.734375 146.867188 72.457031 C 146.269531 72.496094 145.265625 72.617188 143.984375 72.65625 C 142.300781 72.738281 141.339844 66.683594 141.179688 62.390625 L 141.140625 61.070312 L 141.097656 61.109375 C 141.179688 58.261719 141.5 56.054688 141.539062 55.976562 C 141.539062 55.976562 140.417969 58.945312 140.296875 62.390625 C 138.855469 65 138.496094 69.851562 139.097656 72.699219 C 137.132812 72.65625 135.289062 72.539062 133.648438 72.296875 L 133.488281 72.257812 C 132.84375 72.175781 132.246094 72.054688 131.644531 71.9375 C 126.996094 70.574219 127.394531 59.746094 127.4375 59.625 L 127.476562 58.34375 C 127.71875 55.777344 128.238281 52.726562 129.199219 49.199219 C 129.199219 49.199219 127.117188 52.929688 126.636719 59.425781 C 124.632812 62.113281 124.632812 66.121094 125.113281 68.648438 C 121.707031 63.957031 122.828125 58.542969 122.828125 58.503906 L 123.070312 57.417969 L 122.988281 57.5 C 124.511719 49.601562 129.238281 42.824219 129.238281 42.824219 C 124.992188 48.078125 122.546875 53.328125 122.027344 58.222656 C 119.945312 59.90625 118.382812 62.472656 117.578125 63.957031 C 117.058594 58.421875 120.585938 52.285156 120.625 52.246094 L 121.066406 51.484375 L 120.984375 51.484375 C 121.027344 51.445312 121.027344 51.40625 121.066406 51.363281 C 124.832031 44.347656 130.761719 39.855469 130.761719 39.855469 C 130.761719 39.855469 125.753906 41.980469 119.824219 51.683594 C 116.9375 52.125 115.175781 51.40625 114.375 50.921875 C 119.464844 48.597656 124.832031 42.824219 132.085938 34.925781 C 133.605469 33.28125 135.25 31.515625 136.933594 29.671875 C 146.226562 19.765625 158.648438 9.058594 172.710938 13.429688 C 171.832031 13.792969 170.1875 14.714844 169.464844 16.800781 C 169.464844 16.800781 172.191406 14.632812 174.316406 13.75 C 182.847656 10.984375 195.871094 13.351562 204.566406 25.058594 C 208.011719 29.710938 210.253906 35.246094 212.378906 40.617188 C 213.539062 43.503906 214.703125 46.472656 216.105469 49.28125 C 220.992188 59.34375 227.121094 65.800781 234.292969 68.488281 C 235.175781 69.730469 235.496094 71.65625 235.136719 73.339844 C 234.816406 74.824219 233.855469 76.144531 232.570312 76.90625 C 230.609375 73.21875 227.203125 69.609375 224.199219 66.523438 C 220.792969 63.035156 215.421875 56.378906 215.421875 56.378906 C 216.824219 60.1875 220.109375 63.554688 223.597656 67.082031 C 226.882812 70.410156 230.449219 74.460938 232.25 78.351562 L 233.132812 77.992188 C 233.09375 77.871094 233.011719 77.75 232.972656 77.628906 C 234.453125 76.746094 235.578125 75.222656 235.976562 73.5 C 236.417969 71.574219 235.976562 69.328125 234.9375 67.925781 L 234.855469 67.84375 L 234.65625 67.804688 C 227.644531 65.199219 221.632812 58.863281 216.824219 48.957031 C 215.464844 46.152344 214.300781 43.222656 213.140625 40.335938 C 210.976562 34.925781 208.730469 29.351562 205.207031 24.617188 C 196.230469 12.546875 182.769531 10.144531 173.953125 13.03125 C 167.421875 10.703125 160.53125 11.386719 153.519531 15.074219 C 148.152344 17.882812 142.703125 22.371094 136.332031 29.148438 C 134.609375 30.996094 133.003906 32.71875 131.484375 34.402344 C 123.992188 42.542969 118.542969 48.4375 113.574219 50.644531 L 113.050781 50.882812 L 113.453125 51.285156 C 113.53125 51.363281 115.417969 53.210938 119.703125 52.6875 C 118.660156 54.691406 116.058594 60.386719 117.140625 65.480469 L 117.378906 66.644531 L 117.902344 65.558594 C 117.902344 65.519531 119.582031 61.910156 122.027344 59.585938 C 121.828125 61.75 121.867188 66.722656 125.875 70.773438 L 127.476562 72.417969 L 126.515625 70.332031 C 125.875 68.96875 125.191406 64.476562 126.714844 61.230469 C 126.753906 64.398438 127.355469 71.65625 131.5625 72.898438 C 132.164062 73.019531 132.804688 73.140625 133.40625 73.21875 C 133.488281 73.460938 133.648438 73.902344 133.96875 74.664062 C 134.328125 75.503906 134.730469 76.585938 135.007812 77.308594 C 136.410156 81.398438 138.253906 88.296875 139.496094 92.867188 C 140.058594 94.953125 140.5 96.597656 140.738281 97.4375 C 141.859375 101.167969 156.804688 111.472656 162.65625 113.117188 C 164.015625 113.519531 166.0625 113.398438 168.542969 112.757812 C 168.464844 115.484375 168.0625 117.410156 167.464844 118.410156 C 167.023438 119.09375 166.179688 119.695312 164.898438 120.214844 C 164.738281 120.015625 164.5 119.855469 164.058594 119.855469 C 163.65625 119.8125 163.054688 119.976562 162.414062 120.175781 C 162.214844 119.894531 161.933594 119.574219 161.492188 119.652344 C 161.210938 119.695312 160.8125 119.8125 160.292969 119.976562 C 159.128906 120.296875 157.328125 120.816406 154.84375 121.058594 C 153.121094 121.21875 151.675781 121.058594 150.476562 120.9375 C 149.191406 120.816406 148.230469 120.695312 147.671875 121.136719 L 147.589844 121.179688 C 147.390625 121.378906 147.230469 121.617188 147.027344 121.859375 C 146.109375 121.859375 142.222656 121.941406 139.375 123.664062 C 137.09375 125.027344 135.53125 127.113281 134.808594 128.277344 C 134.769531 128.113281 134.730469 127.953125 134.6875 127.792969 C 134.367188 126.632812 134.046875 125.546875 133.96875 124.90625 C 135.769531 124.183594 138.816406 120.855469 139.175781 119.132812 C 139.417969 118.011719 137.8125 112.15625 137.8125 112.117188 C 137.453125 110.871094 136.371094 109.308594 135.53125 108.949219 C 134.929688 108.667969 134.207031 108.785156 133.605469 108.988281 C 133.605469 108.304688 133.566406 107.261719 133.125 106.582031 C 132.605469 105.738281 130.199219 103.453125 129.199219 103.855469 C 128.957031 103.933594 128.71875 104.09375 128.476562 104.214844 C 128.519531 103.414062 128.476562 102.289062 128.117188 101.691406 C 127.554688 100.808594 126.394531 99.285156 125.113281 99.003906 C 124.511719 98.882812 123.871094 98.882812 123.269531 99.082031 C 125.511719 96.277344 130 90.703125 130.601562 87.976562 C 131.121094 85.570312 130.160156 84.167969 129.199219 83.683594 C 128.558594 83.363281 127.957031 83.445312 127.597656 83.84375 C 125.992188 85.769531 121.304688 90.941406 118.300781 94.191406 C 117.941406 93.066406 117.378906 92.066406 116.660156 91.222656 C 115.535156 89.941406 114.132812 89.296875 112.851562 89.460938 C 112.332031 89.539062 111.890625 89.738281 111.691406 90.101562 C 111.371094 90.582031 111.488281 91.183594 111.53125 91.542969 L 113.011719 99.765625 C 110.246094 102.613281 107.28125 105.699219 106.28125 106.941406 C 105.640625 107.625 106.039062 109.667969 107.003906 112.996094 C 107.042969 113.199219 107.121094 113.398438 107.164062 113.558594 C 107.601562 115.164062 110.96875 129.199219 111.289062 130.839844 C 111.488281 132.527344 100.871094 153.417969 94.339844 164.246094 C 90.855469 169.980469 87.488281 177.71875 85.285156 185.015625 C 85.046875 184.894531 84.765625 184.816406 84.484375 184.894531 C 83.722656 185.136719 83.484375 186.378906 83.242188 187.664062 C 83.203125 187.941406 83.121094 188.222656 83.082031 188.464844 C 82.960938 188.945312 82.761719 189.386719 82.480469 189.867188 C 81.878906 190.992188 81.078125 192.394531 81.160156 195.84375 L 81.160156 196.125 L 81.441406 196.203125 C 81.441406 196.203125 82.5625 196.523438 83.324219 196.804688 C 83.402344 196.84375 93.179688 200.453125 106.082031 203.824219 C 114.453125 206.027344 122.386719 207.59375 123.269531 207.753906 L 123.511719 207.792969 L 123.671875 207.59375 C 125.433594 205.144531 126.636719 201.976562 127.316406 199.8125 C 127.476562 201.898438 127.757812 203.824219 128.15625 205.628906 C 128.199219 205.746094 128.199219 205.867188 128.238281 205.949219 C 128.277344 206.109375 128.316406 206.269531 128.359375 206.390625 C 128.398438 206.550781 128.4375 206.710938 128.476562 206.871094 C 128.519531 206.992188 128.519531 207.109375 128.558594 207.230469 C 128.597656 207.390625 128.636719 207.550781 128.679688 207.710938 C 128.679688 207.753906 128.679688 207.753906 128.679688 207.792969 L 128.636719 208.113281 L 128.957031 208.234375 C 129.039062 208.273438 137.574219 211.242188 151.675781 212.484375 C 155.242188 212.804688 159.410156 213.003906 164.058594 213.003906 C 176.277344 213.003906 191.902344 211.480469 209.414062 206.269531 L 209.652344 206.1875 L 210.695312 201.015625 C 210.734375 200.894531 210.773438 200.734375 210.773438 200.613281 L 210.816406 200.414062 C 210.9375 198.96875 209.972656 197.769531 209.574219 197.367188 C 210.894531 188.90625 213.5 180.964844 214.703125 177.636719 C 215.0625 181.246094 215.34375 184.695312 215.503906 187.0625 L 215.625 188.585938 C 215.703125 189.789062 215.785156 191.070312 215.863281 192.394531 C 216.144531 197.125 216.425781 202.058594 217.867188 204.382812 L 218.027344 204.664062 L 218.347656 204.542969 C 218.546875 204.464844 239.421875 197.246094 248.878906 191.992188 L 249.078125 191.871094 L 249.078125 191.632812 C 249 187.019531 248.238281 183.210938 246.714844 180.324219 Z M 164.097656 121.296875 C 164.296875 121.21875 164.539062 121.179688 164.738281 121.097656 L 165.179688 120.9375 C 166.660156 120.335938 167.664062 119.613281 168.183594 118.773438 C 168.90625 117.570312 169.304688 115.363281 169.386719 112.195312 L 169.386719 111.675781 L 168.867188 111.792969 C 166.300781 112.476562 164.175781 112.675781 162.855469 112.277344 C 156.84375 110.550781 142.460938 100.367188 141.5 97.117188 C 141.257812 96.277344 140.820312 94.632812 140.257812 92.585938 C 139.015625 88.015625 137.171875 81.078125 135.769531 76.988281 C 135.488281 76.226562 135.089844 75.144531 134.730469 74.300781 C 134.609375 73.941406 134.449219 73.578125 134.328125 73.300781 C 136.011719 73.5 137.8125 73.578125 139.738281 73.621094 L 140.257812 73.621094 L 140.097656 73.097656 C 139.457031 70.851562 139.617188 66.761719 140.578125 64.078125 C 140.820312 67.324219 141.578125 73.5 144.105469 73.5 C 144.105469 73.5 144.144531 73.5 144.144531 73.5 C 146.269531 73.378906 147.671875 73.21875 147.671875 73.21875 L 148.3125 73.140625 L 147.949219 72.617188 C 147.910156 72.578125 144.585938 67.285156 145.144531 57.660156 C 147.390625 65.199219 151.957031 71.65625 155.882812 72.496094 C 157.046875 72.738281 159.609375 72.457031 163.65625 71.65625 L 164.257812 71.535156 L 163.898438 71.011719 C 161.535156 67.726562 160.933594 63.875 160.851562 61.109375 C 162.335938 65.839844 166.222656 70.652344 167.625 70.773438 L 167.785156 70.773438 C 170.066406 70.25 172.589844 69.609375 175.355469 68.886719 L 176.4375 68.609375 L 175.394531 68.125 C 174.753906 67.84375 174.234375 66.644531 173.992188 64.917969 C 175.394531 66.84375 177.960938 68.285156 179.164062 67.886719 C 181.488281 67.125 183.089844 66.804688 183.089844 66.804688 L 183.808594 66.644531 L 183.289062 66.121094 C 183.25 66.082031 178.800781 61.628906 178.601562 54.933594 C 181.488281 58.703125 184.453125 61.949219 187.375 64.558594 C 189.699219 66.480469 191.503906 66.683594 192.023438 66.722656 C 192.664062 67.242188 195.992188 69.890625 198.152344 71.011719 L 198.515625 71.214844 L 198.675781 70.8125 C 198.675781 70.773438 200.398438 66.964844 203.644531 66 C 204.605469 65.71875 205.765625 65.878906 206.890625 66.363281 C 207.167969 66.523438 207.449219 66.683594 207.769531 66.84375 C 208.128906 67.082031 208.453125 67.324219 208.773438 67.605469 C 210.855469 69.53125 211.617188 72.417969 210.933594 75.585938 C 209.453125 82.402344 196.429688 87.375 196.3125 87.414062 L 196.152344 87.496094 L 196.070312 87.65625 C 195.027344 90.621094 193.507812 93.507812 191.503906 96.234375 L 191.421875 96.355469 L 191.421875 96.476562 C 191.464844 99.925781 191.664062 103.816406 191.785156 106.902344 C 191.863281 108.546875 191.945312 109.949219 191.945312 110.871094 C 192.023438 114 195.46875 116.164062 197.953125 117.289062 C 197.714844 117.6875 197.273438 118.449219 196.472656 119.695312 C 193.425781 124.625 186.253906 126.832031 181.527344 128.316406 C 179.601562 128.917969 178.199219 129.359375 177.519531 129.800781 C 175.15625 131.441406 173.074219 134.492188 170.667969 139.824219 C 170.546875 137.378906 170.226562 132.96875 169.746094 131.644531 C 169.226562 130.199219 168.585938 129.757812 166.941406 128.597656 C 166.382812 128.195312 165.699219 127.714844 164.820312 127.03125 C 163.617188 126.109375 163.015625 125.109375 162.933594 124.023438 C 162.976562 122.863281 163.535156 121.859375 164.097656 121.296875 Z M 161.53125 121.179688 C 161.652344 121.136719 161.773438 121.136719 161.855469 121.097656 L 162.773438 120.855469 C 163.015625 120.777344 163.257812 120.738281 163.457031 120.695312 C 163.457031 120.695312 163.457031 120.695312 163.417969 120.695312 L 163.457031 120.816406 C 162.773438 121.539062 162.09375 122.703125 162.132812 124.066406 C 162.214844 125.386719 162.933594 126.589844 164.335938 127.675781 C 165.21875 128.355469 165.902344 128.835938 166.460938 129.238281 C 168.0625 130.359375 168.503906 130.722656 168.984375 131.925781 C 169.625 133.609375 169.945312 141.46875 169.945312 141.546875 L 169.945312 141.589844 C 168.625 144.835938 167.542969 148.726562 167.140625 153.136719 C 167.140625 153.136719 169.464844 144.835938 170.789062 141.589844 C 170.789062 141.589844 170.789062 141.546875 170.789062 141.546875 C 173.394531 135.492188 175.554688 132.207031 178 130.480469 C 178.5625 130.078125 180.042969 129.640625 181.765625 129.078125 C 185.894531 127.792969 191.742188 125.988281 195.429688 122.300781 C 191.984375 130.761719 188.257812 146.960938 187.015625 156.183594 C 182.96875 155.984375 176.15625 158.46875 170.148438 160.675781 C 165.460938 162.398438 161.011719 164.003906 159.570312 163.683594 C 156.40625 163 149.03125 155.625 147.910156 154.460938 C 149.074219 147.964844 155.722656 126.832031 161.332031 121.339844 Z M 95.0625 164.566406 C 100.992188 154.742188 112.53125 132.484375 112.132812 130.5625 C 111.808594 128.917969 108.40625 114.84375 107.964844 113.238281 C 107.925781 113.078125 107.882812 112.878906 107.804688 112.675781 C 106.921875 109.46875 106.601562 107.703125 106.921875 107.34375 C 107.964844 106.058594 111.128906 102.773438 113.773438 100.046875 L 113.933594 99.886719 L 112.371094 91.222656 C 112.332031 90.902344 112.25 90.582031 112.410156 90.382812 C 112.53125 90.179688 112.851562 90.140625 113.011719 90.101562 C 114.453125 89.941406 115.695312 91.101562 116.136719 91.625 C 116.9375 92.546875 117.539062 93.710938 117.820312 94.953125 L 117.980469 95.714844 L 118.5 95.152344 C 121.464844 91.984375 126.636719 86.292969 128.316406 84.246094 C 128.398438 84.167969 128.636719 84.125 128.917969 84.285156 C 129.640625 84.648438 130.320312 85.730469 129.921875 87.695312 C 129.359375 90.300781 124.632812 96.117188 122.628906 98.601562 C 122.066406 99.285156 121.707031 99.765625 121.546875 99.964844 L 120.222656 101.929688 L 122.148438 100.488281 C 123.1875 99.726562 124.152344 99.445312 125.074219 99.644531 C 125.792969 99.804688 126.714844 100.6875 127.554688 101.96875 C 127.878906 102.453125 127.835938 103.976562 127.757812 104.777344 L 127.636719 105.699219 L 128.398438 105.136719 C 128.398438 105.136719 129.039062 104.65625 129.601562 104.417969 C 130.039062 104.335938 131.925781 105.820312 132.566406 106.820312 C 132.964844 107.464844 132.925781 108.867188 132.886719 109.347656 L 132.804688 109.988281 L 133.40625 109.75 C 133.726562 109.628906 134.730469 109.226562 135.289062 109.46875 C 135.851562 109.710938 136.8125 110.992188 137.09375 112.117188 C 137.613281 114.039062 138.574219 118.128906 138.453125 118.773438 C 138.175781 120.296875 134.96875 123.664062 133.527344 124.023438 L 133.246094 124.105469 L 133.246094 124.386719 C 133.207031 125.066406 133.566406 126.269531 133.96875 127.792969 C 134.527344 129.679688 135.167969 132.042969 135.050781 133.449219 C 134.6875 136.617188 131.484375 139.222656 129.839844 139.902344 L 129.761719 139.945312 L 129.679688 140.023438 C 128.839844 141.105469 126.355469 147.042969 123.511719 153.9375 C 121.988281 157.589844 120.464844 161.316406 119.023438 164.605469 C 116.9375 169.417969 115.578125 176.113281 114.414062 182.046875 C 113.773438 185.257812 113.171875 188.34375 112.492188 190.671875 L 112.492188 190.75 C 111.570312 190.628906 110.207031 190.550781 108.40625 190.429688 C 106.039062 190.269531 102.753906 190.109375 98.789062 189.667969 C 92.296875 188.945312 88.453125 187.664062 85.96875 185.296875 C 88.171875 178.117188 91.578125 170.339844 95.0625 164.566406 Z M 128.917969 205.144531 C 128.878906 204.90625 128.839844 204.664062 128.757812 204.425781 C 128.71875 204.265625 128.679688 204.0625 128.679688 203.902344 C 128.636719 203.703125 128.597656 203.5 128.597656 203.300781 C 128.558594 202.980469 128.519531 202.699219 128.476562 202.378906 C 128.476562 202.296875 128.4375 202.179688 128.4375 202.097656 C 128.398438 201.65625 128.316406 201.214844 128.277344 200.773438 C 128.277344 200.734375 128.277344 200.695312 128.277344 200.695312 C 127.675781 194.800781 128.277344 189.667969 128.277344 189.585938 L 128.277344 189.46875 L 128.199219 189.347656 C 128.15625 189.265625 123.027344 179.882812 123.949219 170.621094 C 124.550781 164.765625 132.003906 147.765625 132.003906 147.765625 C 131.363281 149.167969 130.640625 150.570312 129.960938 151.933594 C 126.914062 158.109375 123.75 164.484375 123.148438 170.5 C 123.027344 171.824219 122.988281 173.148438 123.070312 174.429688 C 122.828125 175.550781 122.507812 176.875 122.066406 178.277344 C 121.1875 183.050781 120.425781 190.027344 122.109375 195.523438 C 122.109375 195.523438 120.984375 201.015625 119.664062 206.066406 C 116.378906 205.386719 111.449219 204.265625 106.320312 202.898438 C 93.460938 199.53125 83.761719 195.964844 83.644531 195.921875 C 83.082031 195.722656 82.402344 195.523438 82 195.402344 C 81.960938 192.355469 82.640625 191.109375 83.203125 190.109375 C 83.484375 189.585938 83.761719 189.105469 83.882812 188.503906 C 83.925781 188.222656 84.003906 187.941406 84.042969 187.664062 C 84.164062 186.941406 84.445312 185.617188 84.726562 185.496094 C 84.765625 185.496094 84.925781 185.539062 85.207031 185.777344 C 87.808594 188.34375 91.855469 189.789062 98.667969 190.507812 C 102.636719 190.949219 105.921875 191.152344 108.324219 191.273438 C 110.289062 191.390625 111.691406 191.472656 112.570312 191.632812 C 113.371094 192.234375 112.972656 193.757812 112.652344 195 C 112.492188 195.601562 112.371094 196.125 112.332031 196.523438 C 112.332031 196.886719 112.492188 197.285156 112.652344 197.726562 C 113.773438 201.015625 112.492188 203.421875 112.492188 203.421875 C 114.613281 200.855469 113.855469 198.730469 113.371094 197.445312 C 113.253906 197.085938 113.132812 196.726562 113.132812 196.523438 C 113.132812 196.203125 113.292969 195.722656 113.414062 195.203125 C 113.773438 193.835938 114.253906 192.035156 113.171875 191.109375 L 113.210938 190.949219 C 113.894531 188.585938 114.496094 185.496094 115.136719 182.25 C 116.296875 176.394531 117.660156 169.738281 119.703125 164.964844 C 121.144531 161.679688 122.667969 157.910156 124.191406 154.257812 C 126.835938 147.84375 129.359375 141.789062 130.199219 140.585938 C 131.84375 139.824219 135.410156 137.136719 135.808594 133.488281 C 135.929688 132.285156 135.570312 130.679688 135.167969 129.039062 C 135.53125 128.394531 137.210938 125.628906 139.855469 124.066406 C 142.0625 122.742188 145.066406 122.460938 146.46875 122.378906 C 140.058594 130.960938 129.078125 155.101562 127.675781 168.292969 C 127.035156 174.308594 127.636719 181.566406 128.199219 188.585938 C 128.71875 194.71875 129.160156 200.332031 128.917969 205.144531 Z M 208.933594 205.507812 C 185.011719 212.605469 164.660156 212.726562 151.757812 211.601562 C 139.214844 210.519531 131.164062 208.03125 129.519531 207.472656 C 130.121094 202.179688 129.558594 195.640625 129 188.746094 C 128.4375 181.769531 127.835938 174.550781 128.476562 168.574219 C 129.960938 154.660156 142.222656 128.476562 148.269531 121.660156 C 148.632812 121.457031 149.472656 121.539062 150.476562 121.660156 C 151.675781 121.777344 153.199219 121.941406 154.960938 121.777344 C 157.527344 121.539062 159.371094 121.015625 160.570312 120.695312 C 160.652344 120.65625 160.773438 120.65625 160.851562 120.617188 L 160.8125 120.65625 C 155.042969 126.191406 148.152344 148.164062 147.070312 154.5 L 147.027344 154.699219 L 147.1875 154.859375 C 147.550781 155.222656 155.761719 163.644531 159.410156 164.445312 C 161.09375 164.804688 165.21875 163.320312 170.429688 161.398438 C 176.558594 159.152344 183.53125 156.625 187.335938 156.988281 L 187.738281 157.027344 L 187.777344 156.625 C 189.578125 142.46875 195.992188 119.09375 199.074219 117.648438 C 199.757812 117.367188 202.242188 117.769531 204.605469 118.089844 C 207.25 118.492188 210.214844 118.933594 212.335938 118.8125 C 212.9375 119.332031 213.339844 119.613281 213.539062 119.8125 C 212.777344 120.976562 210.335938 125.027344 209.734375 129.238281 C 204.363281 167.253906 203.683594 192.195312 204.164062 197.769531 C 204.285156 199.050781 204.804688 200.011719 205.648438 200.65625 C 206.96875 201.617188 208.773438 201.578125 209.695312 201.457031 Z M 218.347656 203.703125 C 217.144531 201.417969 216.867188 196.644531 216.625 192.394531 C 216.542969 191.03125 216.464844 189.789062 216.382812 188.542969 L 216.265625 187.019531 C 216.0625 184.253906 215.703125 180.042969 215.261719 175.832031 C 215.222656 175.351562 215.183594 174.789062 215.101562 174.230469 L 215.101562 174.1875 C 214.703125 170.78125 213.859375 166.167969 212.980469 163.042969 C 212.578125 161.636719 212.175781 160.476562 211.777344 159.914062 C 211.777344 159.914062 212.175781 161.917969 212.699219 164.605469 L 206.207031 199.972656 C 206.207031 199.972656 206.207031 199.972656 206.167969 199.972656 C 205.488281 199.492188 205.085938 198.691406 205.003906 197.648438 C 204.484375 192.113281 205.207031 167.253906 210.574219 129.316406 C 211.175781 125.1875 213.699219 121.058594 214.339844 120.136719 C 219.75 120.777344 225.359375 122.019531 229.765625 126.710938 C 233.132812 130.242188 238.019531 150.089844 241.625 164.566406 C 243.671875 172.746094 245.273438 179.203125 246.074219 180.765625 C 247.515625 183.492188 248.238281 187.101562 248.277344 191.472656 C 239.382812 196.285156 220.953125 202.78125 218.347656 203.703125 Z M 218.347656 203.703125 " fill-opacity="1" fill-rule="nonzero"/></g></svg>