<svg xmlns="http://www.w3.org/2000/svg" xmlns:xlink="http://www.w3.org/1999/xlink" width="500" zoomAndPan="magnify" viewBox="0 0 375 374.999991" height="500" preserveAspectRatio="xMidYMid meet" version="1.0"><defs><clipPath id="b08aeabacb"><path d="M 12.828125 37.5 L 362.328125 37.5 L 362.328125 337.5 L 12.828125 337.5 Z M 12.828125 37.5 " clip-rule="nonzero"/></clipPath></defs><g clip-path="url(#b08aeabacb)"><path fill="#5e548e" d="M 39.203125 258.449219 L 39.203125 116.550781 L 65.554688 116.550781 L 65.554688 311.164062 L 91.941406 337.5 L 283.253906 337.5 L 286.644531 334.109375 L 309.601562 311.164062 L 91.941406 311.164062 L 91.941406 284.824219 L 335.953125 284.824219 L 362.300781 258.449219 L 91.941406 258.449219 L 91.941406 116.550781 L 233.90625 116.550781 L 233.90625 238.695312 L 260.296875 238.695312 L 260.296875 63.835938 L 233.90625 37.5 L 91.941406 37.5 L 65.554688 63.835938 L 233.90625 63.835938 L 233.90625 90.175781 L 39.203125 90.175781 L 12.855469 116.550781 L 12.855469 258.449219 L 39.203125 284.824219 Z M 312.996094 238.695312 L 312.996094 116.550781 L 286.644531 90.175781 L 286.644531 238.695312 Z M 312.996094 238.695312 " fill-opacity="1" fill-rule="evenodd"/></g></svg>