<svg xmlns="http://www.w3.org/2000/svg" xmlns:xlink="http://www.w3.org/1999/xlink" width="308" zoomAndPan="magnify" viewBox="0 0 230.87999 94.499997" height="126" preserveAspectRatio="xMidYMid meet" version="1.0"><defs><g/><clipPath id="8102caa62a"><path d="M 0.582031 0.101562 L 109.503906 0.101562 L 109.503906 94.003906 L 0.582031 94.003906 Z M 0.582031 0.101562 " clip-rule="nonzero"/></clipPath></defs><g clip-path="url(#8102caa62a)"><path fill="#121212" d="M 8.796875 69.332031 L 8.796875 24.871094 L 17.011719 24.871094 L 17.011719 85.851562 L 25.234375 94.101562 L 84.863281 94.101562 L 85.917969 93.039062 L 93.074219 85.851562 L 25.234375 85.851562 L 25.234375 77.597656 L 101.285156 77.597656 L 109.5 69.332031 L 25.234375 69.332031 L 25.234375 24.871094 L 69.480469 24.871094 L 69.480469 63.144531 L 77.707031 63.144531 L 77.707031 8.351562 L 69.480469 0.101562 L 25.234375 0.101562 L 17.011719 8.351562 L 69.480469 8.351562 L 69.480469 16.605469 L 8.796875 16.605469 L 0.585938 24.871094 L 0.585938 69.332031 L 8.796875 77.597656 Z M 94.132812 63.144531 L 94.132812 24.871094 L 85.917969 16.605469 L 85.917969 63.144531 Z M 94.132812 63.144531 " fill-opacity="1" fill-rule="evenodd"/></g><g fill="#121212" fill-opacity="1"><g transform="translate(101.004565, 58.503308)"><g><path d="M 26.296875 -2.390625 C 23.796875 -0.546875 20.414062 0.375 16.15625 0.375 C 11.90625 0.375 8.53125 -0.546875 6.03125 -2.390625 C 3.53125 -4.242188 2.28125 -7.132812 2.28125 -11.0625 L 2.28125 -25.59375 C 2.28125 -25.875 2.378906 -26.113281 2.578125 -26.3125 C 2.785156 -26.519531 3.03125 -26.625 3.3125 -26.625 L 11.25 -26.625 C 11.53125 -26.625 11.769531 -26.519531 11.96875 -26.3125 C 12.175781 -26.113281 12.28125 -25.875 12.28125 -25.59375 L 12.28125 -10.453125 C 12.28125 -9.421875 12.628906 -8.625 13.328125 -8.0625 C 14.023438 -7.5 14.96875 -7.21875 16.15625 -7.21875 C 17.351562 -7.21875 18.300781 -7.5 19 -8.0625 C 19.695312 -8.625 20.046875 -9.421875 20.046875 -10.453125 L 20.046875 -25.59375 C 20.046875 -25.875 20.144531 -26.113281 20.34375 -26.3125 C 20.550781 -26.519531 20.789062 -26.625 21.0625 -26.625 L 29.015625 -26.625 C 29.296875 -26.625 29.535156 -26.519531 29.734375 -26.3125 C 29.941406 -26.113281 30.046875 -25.875 30.046875 -25.59375 L 30.046875 -11.0625 C 30.046875 -7.132812 28.796875 -4.242188 26.296875 -2.390625 Z M 26.296875 -2.390625 "/></g></g></g><g fill="#121212" fill-opacity="1"><g transform="translate(133.326061, 58.503308)"><g><path d="M 13.3125 -7.421875 L 28.484375 -7.421875 C 28.765625 -7.421875 29.003906 -7.316406 29.203125 -7.109375 C 29.410156 -6.910156 29.515625 -6.671875 29.515625 -6.390625 L 29.515625 -1.03125 C 29.515625 -0.75 29.410156 -0.503906 29.203125 -0.296875 C 29.003906 -0.0976562 28.765625 0 28.484375 0 L 4.453125 0 C 4.171875 0 3.925781 -0.0976562 3.71875 -0.296875 C 3.519531 -0.503906 3.421875 -0.75 3.421875 -1.03125 L 3.421875 -25.59375 C 3.421875 -25.875 3.519531 -26.113281 3.71875 -26.3125 C 3.925781 -26.519531 4.171875 -26.625 4.453125 -26.625 L 28.109375 -26.625 C 28.390625 -26.625 28.628906 -26.519531 28.828125 -26.3125 C 29.023438 -26.113281 29.125 -25.875 29.125 -25.59375 L 29.125 -20.234375 C 29.125 -19.953125 29.023438 -19.707031 28.828125 -19.5 C 28.628906 -19.300781 28.390625 -19.203125 28.109375 -19.203125 L 13.3125 -19.203125 L 13.3125 -16.8125 L 26.015625 -16.8125 C 26.296875 -16.8125 26.535156 -16.707031 26.734375 -16.5 C 26.941406 -16.300781 27.046875 -16.0625 27.046875 -15.78125 L 27.046875 -10.84375 C 27.046875 -10.5625 26.941406 -10.316406 26.734375 -10.109375 C 26.535156 -9.910156 26.296875 -9.8125 26.015625 -9.8125 L 13.3125 -9.8125 Z M 13.3125 -7.421875 "/></g></g></g><g fill="#121212" fill-opacity="1"><g transform="translate(165.647558, 58.503308)"><g><path d="M 13.3125 -7.421875 L 28.484375 -7.421875 C 28.765625 -7.421875 29.003906 -7.316406 29.203125 -7.109375 C 29.410156 -6.910156 29.515625 -6.671875 29.515625 -6.390625 L 29.515625 -1.03125 C 29.515625 -0.75 29.410156 -0.503906 29.203125 -0.296875 C 29.003906 -0.0976562 28.765625 0 28.484375 0 L 4.453125 0 C 4.171875 0 3.925781 -0.0976562 3.71875 -0.296875 C 3.519531 -0.503906 3.421875 -0.75 3.421875 -1.03125 L 3.421875 -25.59375 C 3.421875 -25.875 3.519531 -26.113281 3.71875 -26.3125 C 3.925781 -26.519531 4.171875 -26.625 4.453125 -26.625 L 28.109375 -26.625 C 28.390625 -26.625 28.628906 -26.519531 28.828125 -26.3125 C 29.023438 -26.113281 29.125 -25.875 29.125 -25.59375 L 29.125 -20.234375 C 29.125 -19.953125 29.023438 -19.707031 28.828125 -19.5 C 28.628906 -19.300781 28.390625 -19.203125 28.109375 -19.203125 L 13.3125 -19.203125 L 13.3125 -16.8125 L 26.015625 -16.8125 C 26.296875 -16.8125 26.535156 -16.707031 26.734375 -16.5 C 26.941406 -16.300781 27.046875 -16.0625 27.046875 -15.78125 L 27.046875 -10.84375 C 27.046875 -10.5625 26.941406 -10.316406 26.734375 -10.109375 C 26.535156 -9.910156 26.296875 -9.8125 26.015625 -9.8125 L 13.3125 -9.8125 Z M 13.3125 -7.421875 "/></g></g></g><g fill="#121212" fill-opacity="1"><g transform="translate(197.969054, 58.503308)"><g><path d="M 21 -26.625 L 28.0625 -26.625 C 28.34375 -26.625 28.582031 -26.519531 28.78125 -26.3125 C 28.988281 -26.113281 29.09375 -25.875 29.09375 -25.59375 L 29.09375 -1.03125 C 29.09375 -0.75 28.988281 -0.503906 28.78125 -0.296875 C 28.582031 -0.0976562 28.34375 0 28.0625 0 L 21.9375 0 C 21.332031 0 20.828125 -0.265625 20.421875 -0.796875 L 12.125 -11.375 L 12.125 -1.03125 C 12.125 -0.75 12.023438 -0.503906 11.828125 -0.296875 C 11.628906 -0.0976562 11.390625 0 11.109375 0 L 4.03125 0 C 3.75 0 3.503906 -0.0976562 3.296875 -0.296875 C 3.097656 -0.503906 3 -0.75 3 -1.03125 L 3 -25.59375 C 3 -25.875 3.097656 -26.113281 3.296875 -26.3125 C 3.503906 -26.519531 3.75 -26.625 4.03125 -26.625 L 10.1875 -26.625 C 10.800781 -26.625 11.296875 -26.367188 11.671875 -25.859375 L 19.96875 -14.40625 L 19.96875 -25.59375 C 19.96875 -25.875 20.066406 -26.113281 20.265625 -26.3125 C 20.472656 -26.519531 20.71875 -26.625 21 -26.625 Z M 21 -26.625 "/></g></g></g></svg>